<mxfile host="app.diagrams.net" agent="Mozilla/5.0 (Windows NT 10.0; Win64; x64) AppleWebKit/537.36 (KHTML, like Gecko) Chrome/138.0.0.0 Safari/537.36" version="27.1.3">
  <diagram name="Page-1" id="g0hNeXoaKta2IIE30gnJ">
    <mxGraphModel dx="864" dy="476" grid="1" gridSize="10" guides="1" tooltips="1" connect="1" arrows="1" fold="1" page="1" pageScale="1" pageWidth="850" pageHeight="1100" math="0" shadow="0">
      <root>
        <mxCell id="0" />
        <mxCell id="1" parent="0" />
        <mxCell id="dtRiRAH2Uqq6aqAW33ka-1" value="" style="shape=image;verticalLabelPosition=bottom;labelBackgroundColor=default;verticalAlign=top;aspect=fixed;imageAspect=0;editableCssRules=.*;image=data:image/svg+xml,PHN2ZyB4bWxuczp4bGluaz0iaHR0cDovL3d3dy53My5vcmcvMTk5OS94bGluayIgeG1sbnM9Imh0dHA6Ly93d3cudzMub3JnLzIwMDAvc3ZnIiBwcmVzZXJ2ZUFzcGVjdFJhdGlvPSJ4TWlkWU1pZCIgdmVyc2lvbj0iMS4xIiB2aWV3Qm94PSIwIC01Ljk2MDQ2NDQ3NzUzOTA2M2UtOCAyNTYgMjU1Ljk5OTk4NDc0MTIxMDk0IiBoZWlnaHQ9Ijc5OS45OTk5NTIzMTYyODQyIiB3aWR0aD0iODAwIj4mI3hhOyAgICA8Zz4mI3hhOyAgICAgICAgPHBhdGggZmlsbD0iY3VycmVudENvbG9yIiBkPSJNMTE5LjYxNjgxMywwLjA2ODg5MDUxNDkgQzExOS4wNjYyNzYsMC4xMTg5MzIwMzcgMTE3LjMxNDU2NSwwLjI5NDA3NzM2NCAxMTUuNzM4MDI1LDAuNDE5MTgxMTY5IEM3OS4zNzc1MTcxLDMuNjk2OTAwODcgNDUuMzE5MjU3MSwyMy4zMTMxNzc1IDIzLjc0ODE5MTYsNTMuNDYzMTk0NiBDMTEuNzM2NDYxNCw3MC4yMjcxMDQ1IDQuMDUzOTU4OTQsODkuMjQyODgyOSAxLjE1MTEyNDE0LDEwOS4zODQ1OTUgQzAuMTI1MTIyMTksMTE2LjQxNTQyOSAwLDExOC40OTIxNTMgMCwxMjguMDI1MDYyIEMwLDEzNy41NTc5NzIgMC4xMjUxMjIxOSwxMzkuNjM0Njk2IDEuMTUxMTI0MTQsMTQ2LjY2NTUyOSBDOC4xMDc5MTc4OSwxOTQuNzMwNDExIDQyLjMxNjMyNDUsMjM1LjExMzkyIDg4LjcxMTYzMjUsMjUwLjA3NjMzNSBDOTcuMDE5NzQ1OCwyNTIuNzUzNTU2IDEwNS43NzgyOTksMjU0LjU4MDA3MiAxMTUuNzM4MDI1LDI1NS42ODA5ODUgQzExOS42MTY4MTMsMjU2LjEwNjMzOCAxMzYuMzgzMTg3LDI1Ni4xMDYzMzggMTQwLjI2MTk3NSwyNTUuNjgwOTg1IEMxNTcuNDUzNzYzLDI1My43Nzk0MDcgMTcyLjAxNzk4NiwyNDkuNTI1ODc4IDE4Ni4zODIwMTQsMjQyLjE5NDc5NSBDMTg4LjU4NDE2NCwyNDEuMDY4ODYxIDE4OS4wMDk1OCwyNDAuNzY4NjEyIDE4OC43MDkyODYsMjQwLjUxODQwNCBDMTg4LjUwOTA5MSwyNDAuMzY4MjggMTc5LjEyNDkyNywyMjcuNzgyODM3IDE2Ny44NjM5MywyMTIuNTcwMjE0IEwxNDcuMzkzOTM5LDE4NC45MjIyNzMgTDEyMS43NDM4OTEsMTQ2Ljk2NTc3OSBDMTA3LjYzMDEwOCwxMjYuMDk4NDY0IDk2LjAxODc2ODMsMTA5LjAzNDMwNSA5NS45MTg2NzA2LDEwOS4wMzQzMDUgQzk1LjgxODU3MjgsMTA5LjAwOTI4NCA5NS43MTg0NzUxLDEyNS44NzMyNzcgOTUuNjY4NDI2MiwxNDYuNDY1MzYzIEM5NS41OTMzNTI5LDE4Mi41MjAyOCA5NS41NjgzMjg0LDE4My45NzE0ODQgOTUuMTE3ODg4NiwxODQuODIyMTkgQzk0LjQ2NzI1MzIsMTg2LjA0ODIwNyA5My45NjY3NjQ0LDE4Ni41NDg2MjMgOTIuOTE1NzM4LDE4Ny4wOTkwNzkgQzkyLjExNDk1NiwxODcuNDk5NDExIDkxLjQxNDI3MTcsMTg3LjU3NDQ3NCA4Ny42MzU1ODE2LDE4Ny41NzQ0NzQgTDgzLjMwNjM1MzksMTg3LjU3NDQ3NCBMODIuMTU1MjI5NywxODYuODQ4ODcyIEM4MS40MDQ0OTY2LDE4Ni4zNzM0NzcgODAuODUzOTU4OSwxODUuNzQ3OTU4IDgwLjQ3ODU5MjQsMTg1LjAyMjM1NiBMNzkuOTUzMDc5MiwxODMuODk2NDIyIEw4MC4wMDMxMjgxLDEzMy43Mjk3OTYgTDgwLjA3ODIwMTQsODMuNTM4MTQ5MyBMODAuODUzOTU4OSw4Mi41NjIzMzk3IEM4MS4yNTQzNSw4Mi4wMzY5MDM3IDgyLjEwNTE4MDgsODEuMzYxMzQzMSA4Mi43MDU3Njc0LDgxLjAzNjA3MzIgQzgzLjczMTc2OTMsODAuNTM1NjU4IDg0LjEzMjE2MDMsODAuNDg1NjE2NSA4OC40NjEzODgxLDgwLjQ4NTYxNjUgQzkzLjU2NjM3MzQsODAuNDg1NjE2NSA5NC40MTcyMDQzLDgwLjY4NTc4MjYgOTUuNzQzNDk5NSw4Mi4xMzY5ODY3IEM5Ni4xMTg4NjYxLDgyLjUzNzMxODkgMTEwLjAwNzQyOSwxMDMuNDU0Njc1IDEyNi42MjM2NTYsMTI4LjY1MDU4MSBDMTQzLjIzOTg4MywxNTMuODQ2NDg4IDE2NS45NjIwNzIsMTg4LjI1MDAzNCAxNzcuMTIyOTcyLDIwNS4xMzkwNDggTDE5Ny4zOTI3NjYsMjM1LjgzOTUyMiBMMTk4LjQxODc2OCwyMzUuMTYzOTYxIEMyMDcuNTAyNjM5LDIyOS4yNTkwNjIgMjE3LjExMjAyMywyMjAuODUyMDg2IDIyNC43MTk0NTMsMjEyLjA5NDgyIEMyNDAuOTEwMjY0LDE5My41MDQzOTQgMjUxLjM0NTQ1NSwxNzAuODM1NTg1IDI1NC44NDg4NzYsMTQ2LjY2NTUyOSBDMjU1Ljg3NDg3OCwxMzkuNjM0Njk2IDI1NiwxMzcuNTU3OTcyIDI1NiwxMjguMDI1MDYyIEMyNTYsMTE4LjQ5MjE1MyAyNTUuODc0ODc4LDExNi40MTU0MjkgMjU0Ljg0ODg3NiwxMDkuMzg0NTk1IEMyNDcuODkyMDgyLDYxLjMxOTcxMzUgMjEzLjY4MzY3NSwyMC45MzYyMDUyIDE2Ny4yODgzNjgsNS45NzM3OTAxMiBDMTU5LjEwNTM3NiwzLjMyMTU4OTQ1IDE1MC4zOTY4NzIsMS40OTUwNzM4OSAxNDAuNjM3MzQxLDAuMzk0MTYwNDA4IEMxMzguMjM0OTk1LDAuMTQzOTUyNzk4IDEyMS42OTM4NDIsLTAuMTMxMjc1NTczIDExOS42MTY4MTMsMC4wNjg4OTA1MTQ5IEwxMTkuNjE2ODEzLDAuMDY4ODkwNTE0OSBaIE0xNzIuMDE3OTg2LDc3LjQ4MzEyNTIgQzE3My4yMTkxNTksNzguMDgzNjIzNCAxNzQuMTk1MTEyLDc5LjIzNDU3ODQgMTc0LjU0NTQ1NSw4MC40MzU1NzUgQzE3NC43NDU2NSw4MS4wODYxMTQ4IDE3NC43OTU2OTksOTQuOTk3NjU3OSAxNzQuNzQ1NjUsMTI2LjM0ODY3MSBMMTc0LjY3MDU3NywxNzEuMzM2IEwxNjYuNzM3ODMsMTU5LjE3NTkxIEwxNTguNzgwMDU5LDE0Ny4wMTU4MiBMMTU4Ljc4MDA1OSwxMTQuMzEzNjg1IEMxNTguNzgwMDU5LDkzLjE3MTE0MjMgMTU4Ljg4MDE1Niw4MS4yODYyODA4IDE1OS4wMzAzMDMsODAuNzEwODAzMyBDMTU5LjQzMDY5NCw3OS4zMDk2NDA3IDE2MC4zMDY1NDksNzguMjA4NzI3MiAxNjEuNTA3NzIyLDc3LjU1ODE4NzUgQzE2Mi41MzM3MjQsNzcuMDMyNzUxNSAxNjIuOTA5MDkxLDc2Ljk4MjcxIDE2Ni44Mzc5MjgsNzYuOTgyNzEgQzE3MC41NDE1NDQsNzYuOTgyNzEgMTcxLjE5MjE4LDc3LjAzMjc1MTUgMTcyLjAxNzk4Niw3Ny40ODMxMjUyIFoiPiYjeGE7JiN4YTs8L3BhdGg+JiN4YTsgICAgPC9nPiYjeGE7PC9zdmc+;" vertex="1" parent="1">
          <mxGeometry x="360" y="108" width="70" height="70" as="geometry" />
        </mxCell>
        <mxCell id="dtRiRAH2Uqq6aqAW33ka-6" value="" style="shape=image;verticalLabelPosition=bottom;labelBackgroundColor=default;verticalAlign=top;aspect=fixed;imageAspect=0;image=data:image/png,iVBORw0KGgoAAAANSUhEUgAAAwAAAACOCAYAAACG02+7AAAABGdBTUEAALGPC/xhBQAAACBjSFJNAAB6JgAAgIQAAPoAAACA6AAAdTAAAOpgAAA6mAAAF3CculE8AAAABmJLR0QA/wD/AP+gvaeTAAAAB3RJTUUH6QYBCTUnwok+fQAAPXRJREFUeNrtnXl8VeXxuJ85NyE3IDvEXVCxbigu4G61LlXbam1V1GpF3EISjEKBJIi/3m9byQ1YaCO5ISqi1VqNe0XrhlZrXXAXxQrIoqIIYREh6z1nfn8E94XlnLtmns8HRSRz3jPzLjPved8ZoSNRV5eLu3Y30N1A+yHSD0+3Q+gF9EbpDTg40h1FvvxBXY8SR/gMpAFYBawA7wM0tASVJXiNCymNrMMwDMMwDMMw0hjJamffW3sguIfhyYEgAxH2Bjol5oGqIEtR5uLIm3jei7S2vMCoyFrrZoZhGIZhGIYFAMH738L06AF4chIOJ6A6BCQ/xa3ygHcQngIepanTM4we3WTdzjAMwzAMw7AAYGuorw+x6r1jgDNQTgXZLs2jlCaQJ4F7CPEgheWfWhc0DMMwDMMwLADYFHXR/XC5CDgLKMhM1WsLKo/hODP5pPERIpG4dUfDMAzDMAzDAoDPmRkJ05R/LuglwJDsMoN+DHIz0ul6ikYvs25pGIZhGIZhdNwAoHpiX3LkQmAkyPbZbQ5tA/knIlMpKptj3dMwDMMwDMPoOAFAXaQPbngUUAJ07oCmmY3D1Ywoe9m6qWEYhmEYhpG9AUB1pBs54bEbHf9tOrZ5VFGZBTKBkrJ3rLsahmEYhpEW1NeHWLW0N9LWBy+nN+r1wJEeqPYAuqPSA6E7oj1QegA9N/5kDtD1O34PoMDajb9vA9YDLbTXX2oAaUB1BSKrEP0Ix1nIx41L7R5lJgcAkYhDQfg3CJUo25ppvkYcuJm493tKx680dSSB2mgRyq9NEZuMUcdTUvGSKcIwjJQQm3QMeBN8SJhDcflVpsjvcfBXvrcr4gxEdUB7AVX6I9IPZQegd5q0tA1YCrIQ9eaDvALyEiub3iUS8bLOLtVVO5GjM31KcdMjAJheNRhXaxEG2Yj7wXBtNZ5cRfG4mxBRU0giF5XoVOBKU8QmA4BTKKl4xBRhGEaK5urZwHE+JMRxQz/i8rGLO7yz/8mifQjpoagcjnAQsBcQzuC3+hThZZQXUXmCnB7PUljYlvG2mjbxRzjOuz6lxHNS+hJTpuQTbp2A541GJGQz2aacLXohWktt1fnUTSyicPz/TCmGYRgppi7aHc8bCM5APFlFSdndppQkUFt1CKrH+ZSSQ8j9HTCyQ+uyYdEkQowGyaYSsd1RjgeOR3Q87ppPqY0+jsrDiPMQRWNXdGSTpy4AmDbxcKTlZpBds6m3JYkjcZ051E6cwIiK6+xrgGEYRhKoj3RiRXgPHN0HZV+Eg0H2wWVXcNoXMuFGwAKAZKBaFpCki6mZ9CdKxi3vsLoUhOz3JLqjnAl6Jup6xKJPgl5PqNf9WfFlIO0DgEgkh4K8UUAEJNdmsK0mjDrXUjvpFGZUXczFZR+ZSgzDMAKgri4XXbUH6gzE04GI7AvsRwO74RDKsl3SzCRWtSfo6YGtp+KVAFebYjsMDnACyAm4a5YTq7oFabuOognLOpICkjipTt2ebcOzQa4x5z8o9Hha9CWmXXO86cIwDMOvYxm9D3fNejznbZQ7Ebka+DWwB2BHVdNn7RsbsA9TwoyqrqbXDsl2oGVozkJi0Wquq9rBAoAgqYkehdfyAsrh1tcCpy+OM4vaqquJRBxTh2EYxlY7lrsBnUwPaUztn3YEzg9Yak9avctMuR2aMHA5IX2Pmsq/cuOUXhYA+CVWeRnCYyjbW/9KFBJC9WoKwn9nypR804dhGIaRlXi5o4C84GM/GUV9xII/I4xIKa2t71ATvcACgK0aTCrUVl0NMo1UXjjuWJxBuOVx/nKN1VIwDMMwsoupU3sgmqid+h1ZlXe+KdnYSAHCLcSis6iL7mIBwOZSXZ1HbfQfqNqlmqQjh5DrPEPdpN1NF4ZhGEbW0Km1hK9Xjg0WlXF2lNb4Bj/HZS6xqtMtANgUdZHO5Gy4G8QqqaYsBpBd8bx/Uxfdz5RhGIZhZDwzI2FEE52vf0+2zfulKdv4Bt1A7yVWFc2WADH4l6iJbIMX/ifISdZfUoyyLS6PMm3SQaYMwzAMI6NpDg8Htkv82illpmzjOxDQMgry7suGu5bBBgBTpuQj4ftQfmz9JG3og+M9Qm3lgaYKwzAMIyOprw+hjE7S0w6ltvJYU7rxPXHAaYRb72dmJGwBAEAk0on81n8Ax1jnSDt6oDKLmqq9TRWGYRhGxrFq0VnAgKQ9T2WcKd34AX5KU/juTM4aFUxmnkjEoW/4VpSfWZ9IW/oi3sPUTjmKotHLTB1JoQVozOo3VKfNzGwYRuLnGkYl+YknM33iPowYP8+Uv9m8DfIw6DpE1uF568BZh3jrgDXtdgy5iLvuaz/l5bo4bV/+WUi6gpOL6/bA0U540gVPuuBIL9D+QH/QXUH6ATuSugJ9P2dV+O+oDkVEO2YAUBCuAn5lfT/dkR3R1oeYGjmWUZG1po+Ecz3F5aWmBsMwDB/UTjwS5ZBkL5iocyVgxcE2O0jTpygpD+LLyZrN/pt1dbnop/3xvCEIh6AcAQwGJEmB6ZnEolcCUzPNXP6PANVUFgNXWM/PGPYhL3wbkYjVZTAMwzAywVW5MjUOLedTd20f038aU1jYxohxCyguv52i8ispLj8EV3ZCGAE8BSR+Z16kimkTD+1YAcB1lccicq31wIzjpxSEK00NhmEYRlpTW9kfTdkJg3zc+AgzQoZxedlHFJXXUVx+HI43EKgBmhP4xFwcuZPqSLeOEQDcULUTIfk7VuE3U7mCWNQqHhqGYRhpjJSSujPeAJdneraXDs2I8fMoLh9JXPYAuR5wE9RP+5GTV579AUAk0ok2vRPoa70ro7mO6RP3MTUYhmEYaceMqq4oF/mU4vcISAGN4aFmjAyntOxDissKETkC9M0EBQGjmHZtv+wOAArCvweGWI/KeLrgObdnQ0ELwzAMI8to1ouA7j4krEGY7N+v40ozRpZQVDaHUK/BwJ8I/n5AmJCbMcertzwAiE08GnS09aKsYR/y2v5oajAMwzDShvr6EIK/LGpKHYT+THtKZj8caIXBsojCwjaKy69G+A1B3w1QPYdpE3+UfQFAdaQb6twCErIelEWIdzm1lceZIgzDMIy0YNV7pwG7+ZDQihOfRtHYFaB3BLBQXmlGyTKKyu/Ak18ArUF6VEgoI1LHbtkF3pzwRGCnbOsDOY7DM7/8TU6f/M4Z0d645xF99Xnvb/Pf9gLqr4JqHZMnH8DYsRtsVjAMwzBSiorfkwZ3UDRh2UaX7K8ow/y1h1OJVe1Jcdm7ZpwsYmTZbGoqL0DkdoJIjQ8geiEzIxMYHmlO51ff/ACg/ejPpcmqrZBMztptT2dwwfYZ8WLvr1+nhU8/6v7n4w8CPrsm/egSvxootxnBMAzDSBmxyoOBo3w6YX/54vdFFa8Rq/wPyNE+JDqgJYAVd8w2SirupKZqCKK/C0hib5rCvwZuT+fX3rxop64uF3VqQCQbbX/5fgc7mdDO2xfM8w68a2Y8eOf/C66gLrqfzQaGYRhGylBG+XP+mU1RxWvf+LO/BtCyi7hxSi8zUBbi5l8FvB2cQDk93V958xxfb1URwl7ZaPOf7NhP0n33f21LMxfMnuVe+ORD7metrQl8koTw+LPNBIZhGEZKuK5qB0TO8una/OVbf/RJywOgS322rgstrReZkbKQ0tIWREcGGMUeTySS1pvLm27clEgv1KnIVptfOWhwWhto9odL9IC7borfsfAdLykPVI4lVnW6zQaGYRhG0snxioFOPtaw/zFi7EPf+vNIJE57RVh/iI6kvt4SoWQjRRX/Bp4KSFovtss/KK2H2ib/Rjh8FdA7G229Z4+ectJOu6ZlANAcj/OnV59zr319juepJvfh6lUSiczaOGEaRvpSM2k7cuI9UHriOT0QuqP61XLs3RGnCfVaQdaDtqF8BqHl5DgfUjimwZS4BUye3IX8th0RpwCkAHQbRMOIhPDogug6hHi7jqURhw8Jucu59KpPTHnGJqmuzkMbL/Ulw+EviHzfonkjEAF8ZPyQfjQsPhW43wyWhYj+AZWfBONL6QnAy5kZANRN3R63+ZJsvPgLMHrQoY6Thtca5q1p0Atmz3LfXLVSUzMAZHcK8n8LzLTZwEgp9fUhVr63K+IMBPYGb2+gP8hOwA7g5eF+JYZX+NZ8pfqVP5ONv/XA9SAWbUJZivA/4CXQOYTkJQrLP+3wuq+buBeu/BjkgHbdMxDcPl9+ONYvdfqFiuXrpXU8wAtBLNoK+jHwPshS0A/AeRdP5uKF36a0tMU6u0Go8WygwIeEBpo6/e17/29xxRpqorciFPp0EkdaAJCljCh/mtqq94Fd/AcADE7nV/3hAMBtuQokK6vEFuR34ZwBe6XV7r+qEnv7Na/shX+7ra6b4tZ4E6iuvt0WZiOpzv7qhXuioYNBD0ZlMA2LDkCky9eczWDJ33i/aS/gdBBwUWLROaD34ObczeVjF3cI/c+MhGnOOwWPMxA5DpftA5TeCaQf0A84ut2OCo6C0xgnFl0A8iair6O8Qbz5v5RG1mWkHlW7EavcLS3aEm9pyDA9Xu5T97WMHt30w0GGV43nXOZrMlGOo6Zqb0rK3rGJO8sQUWqj96Fc4V8WaV0Q7PsDgBlVO9CiF2arjYv3PcDJz8lNm/Z8uOEzveiph91/L3tf02QU7Eyo6Xxghs0IRoIcJaFu0sF4ejLCiTQsOgicbb509lM2FAQ4FORQQu4kYtGXEJ1OU94/NulcZCI1kw7A8a6giV8D3VLwwTcH2Bt0b5Sz2/8k7FITfQ2R2aj+k5XNLxCJeBmhT2EoyNC0aEtuuBiozQi9TZ94OJ6vHdMWCMU2+bdGjJ9HTfQJhBN9WVm0BBiJkY1r0ywQ/wGAMoBIxEnXuev7d8Bb9XL8XMRJY8KhHC7Z54C02f2/d/F87+C7bo6nj/P/+RTnjU73W+xGpjqd0UuprVqApy8Bf0T5MbBNmrZ2CCozCLd+QKwqyrSJ2XEnqrbyWGLRxxHvNZQLgW5p1LoQwmDQMoT/UhBeTix6E3XXbG+DJ0vxHH/OtPJ3SsYt30z3PYiUoBdQHelmhstCQrmvByQpnz7b7Jyur/ndzl1VVVeUi7PVtsP2HOgU5HdO+eH/T1ubGf7kQ+45jz3grmlJx4JxsgfbhX9us4ERfNfSo4HdM6zVvUHLcJwF1ESvoK4uNyN1Xzdpd2qi96LyFHBChrS6LzCcFrHEBNlIe2B3pr8Agr9s9t9d0fwv4D2fre5KTniYGS8LaU8OsTwQWY7XP7MCgG28YUCPrPQ7gJH7HZTyXe1/L3tfD7xrZvzvC+al92dtz6oeGgkZiQszuPE9Ef6Cu+Z1rsugwnmqQk30ClzvbYRfZaDeF1M6fqWNnSwk7hTi78TBs1xePnez/3Yk4oHe4H9MUYyqmAGzkv8FM+96afuV6LsdYZGs3f3/Rf8BsmeP3ikbsG2ey59eec49+aH6+Ifr12sGqOwY6ibuZXOBEbAzuiAL3mIfQrxATeWFad/Sumv7UFv1IMJfgLwM1feLNnCykPpIJ0R8ZuWR6Vs+B4VuAdr8PZe9qJt0ghkxK1kd0GKXrkdbvyMAqIkeAeybrRYdtf/glBXw+N/aVXrUfbfF//Dyf5Of298PnmOfOY2gWZgl79EZkZnEopPTtoXTJ+2BG38eyOzjfKpzbNhkIQ3hM4Ht/EigLf/uLf6p9vsCD/pfHz27CJyNCAFlz5IMCgCErC1zPbhgOzlq+52Tvvuvqsz435veYffcGn+tYYVmnOKU32bseWcjPWkNL8iyNxpDbbQq7Vo1beKheN7zwICM17BjAUCW4i/1JzJzq9NVawDHgJCfc93kXc2MWYanAQUAmfIFoLo6D/hlttpz9KBDkn72f0VTo/7q0fviRU8/6jbG2zJVdQV4a46zGcEIjFGj1gLZVYVXGUdt1e/Tx/mP7ovjPEx2VHKP0xR+1QZOllFTOQQ4zI+bRkjqtvqnV7Y8BrrU51uECHlFZsyswwlIipMZL5jTdBLQPRstuUvXrnJ6/z2Saoj7lyzwBtXfFH946Xua8QpUzrL5wAiYhVn3Rqq/p6bqzJS347qqHQjxCNArSzQ7NytrMHR0xO/uP09QOG7rs/lEIh7iBFDrRi9iypR8M2g2uf9BHd2R9RkS4XhnZqstS/cb4uQ4yfH/17W2UPLMY+7QR+93VzVnzZp1GpFIJ5sVjAC95QVZ+FKC6M3EJu+fshZEIg4hvRVlp+zpKtjxn2yjdnKB74JpotN9t6ONmYDrU0pv8lvONaNmFR0oAKivDyHy02y0YrdOeQzbc9+keP9zVnykh937t/gN77zhZZkae7Bt3lE2JxgB+soLs/TFuoB7C5FITkqe3jc8BsiuI3t2/j8L43/3EvxlpFrGJy3+L/GWln0IPOxbjid2DCi76BmIFFfTNgD4coFauehwJGs+F3+Ny/YZ5HTvFE7oM+KeR/S1F9xrXnnOc1WzdDzIScCTNi8YARFEAPAZyFpE16K6FqT9MqBKK442ovRA6ITSHdglsEl90xzAtnlXAH9Oqkavq9oB0UTfQ1gDvI3yNsL7G22wHrz1ILlfXHoTuqKyHUIflL60X0TeDdjyhAKuWArQbKK+PkTDe5e1V+bZ2gBCbyQSCagwnNwIeqo/EQwmVnkwxRWvmIGzIUDVAb765+eE9LP0DwCEk7LRhrmOQ/HAxBb+mr92tV741EPuyyuWa5YPiJOBMpsZjID60wJksybYxcBbKG8D7+Do+0hoGXmNHzA8smUltGOVPVHZF+FY4Hjgx5CgS1oq/8d1Vf/g8rKPkjejawSlc8BSPZDnUf0nyIOUlL2z1ZIikRy267wr6h2Mp0cicjSw3yZs8BkFu/3PBkwWsXLRzxDp50NCHNe5MbD2rGh6mILwMmBHf0GAFAKXmYEznLpIZ1zZORBZcUnb4oU5X1mMj9/MxTijGLr7Xs5OXbom7MVuXzDPK/nPY+6GtrYOMCpkb2ZU7cDFSXRojCzuTt/5BeBj0JdAXkJ4CdU5FFesCeyZ7bKe3fjrT1w3eVcc9zKEIoJPgNCFEFcC45Kiz+qqnVAdHqDEVuDvqEz25fR/PQCIAws2/rqjvd0T+5LjnITIz1D9Kd/OWvQyQ4e6GdOvlf8h8kx6tEXmpengHwG+9stmbTy6Q2D9MhadCUzwaftzqY6MoTSyDiNz8fL2JJiNIY+2Tml71LU9AJg8uQsSH5SNdrxy0JCE7O6tbG7UwqcfdWctWagdamC0cQRwt80QRiDOeCzaACwF7kXlvsAczc3l8rGLgQpilZNAxgBjgAAvu2shddFrKCz/NOHvkstwlIDuHcidaNtYSiZ8kPB2l45fCdwG3EZ9fYjVCw/BC10Aej6wDUhmnf8XeZbiskIb4N9DrHI30JN9bh5MD95uOgOV8T4dv23IyfsNJKB9RjIJ6g7V++mcvax9sQjHh7Sf3cwyC+7UTwb1Lgh89/+xDxbrZU8/Ev9ow/qONyxULQAwgiOUszeFY1JfD6D9y8BVTI/W48ltoAMDktwNl4uBKQkel0Jt9OIAzqy2olxKSdnfUmKH9p3+54HnqY6UkZt/ASpzbaBkE85loH6c7Pf4pPnxwJtVVLGEWPRx8HscWgotAMh0P0d+FpCkd9N6JLb/Uw7LRhteuX+wu/9N8TbGPPeke+rDd3dM5x9AOdxmByMw0sH5/yojyt8g3nQkwuwApZ6d8HbXVO0Dvs5Ut49ulfMoKf9bWtiiNLKOorJpFI972gZKllBdnQd6kc9uegORSGKy7EkQlYE5gGkTDzVjZyixyp5AMBkPhbS+u+Rs7PQHZJsN9+zRU366U//AAoBXVi7XIffcEq+e+4qnHXp06EDq6nJtljCyltLIOto6/xzkvwFJHEJtZf+Etlk4IQAp0ykps697RuLIaTwL6OtDQpyQl7gAtXfLg8AK/+PRsYvAmUr7Re5gjoF6+nz6BwDI/tlmw98dcKjjBHCpOe55XPv6HO+YB26Pz1+7Rm10SB7xtQNMD0Z2BwGlLcTdX4EEcQZe8PhVgmdyvztWTeS6/2eGNxK8fozwKeBRCq/6OGHNGxppReXWAEb8OUyd2sPsnWHURzqhvqtTf46L6hPpHQBMntyF9tzMWUNBfhfO2X1v37v/769fpyfNqo+Pf/Fpt9V1bXB80Wt0P1OCkf1BwPiVqHcJPtOVbHQIjk1wa/f09dPKI1x61SdmdCNhTI8OAj3SnxC9JeHtDLk3BSClM+HW883oGcbKcCmwQ0DSXmbk+FXp/Lo5dHUH4OFkkw1LBh7ohHP8JcO4fcE87/JnH3c/a221QfFtb2ZP08Fm0b0940WG4+W6jByztENasKTiMWqr7kD1XJ9j5khUBZHgvyJGIg7KHj6l2Dl7I8HziO/Un6uJd/lnwts5Yvw8YtHngCN8BiuXAdPM8BlCTeUAhCC/gj6a7q+cA/TPJht2zsnl0r0Hhbb259e2NFP67BPuHQvf8WxEfN+8pruaEjaLC0AuyPi3cOIN+Du3m9m4bgTHGQqEfEjp3X5Rl7cDb1+vTr0Bf6XOQ94CG65GwqiOdAM9z6eUf1Ba2pKcNU5uQtRfAKDsR030CErKn7MOkO79szoPabwFAiyiKHp/2i/teF5WOXMX7Lmv0yd/62w4+8MlesBdN8XN+d8k/U0FRodh5Pj5oP8KYLZNTK0Vyd3Gt4y4s94MbSSMUP75QFd/40duTl6Dm+4E/I8JwepBpDuqQm7TTHx/8fkaz1FU8Vq6v3oO4uxCllxtdUQo3W/wVh1nmrX0Pa/27de8fXr2ZZ+efZNWEvnDDev435rVmWUBtQDA6GiLhDMT0V/4lLJ3Yhrn+g8AHOlhRjYSRnulbT8C3mJE2ctJa29JZD2x6J3AxT4lncWNU0ZxyejV1gnSkEjEIRadisi5Aff36zLh9XNQts0WW57ab3dnQPeeW+W8/6Lf7s4v+u2e1LsQ9y6e7xU9/Wjm3S4WChJ2ntkw0pKmxyDcir/0cIkJAHJx8P3N0tvObGwkhJroUb4L64l3c9Lb7Xgz8By/AUA+La2/Bf5qHSHNmDIln/zWv6GcGbDkj3F63pMJKnCA3tliz1GDhmTEZeZPW5u58MmH3HMee8Bd09KciaruxHX/1xXD6CiURNaDvuhTSmLS57q6IYCofmczspEQBJ+Fv4iT492W9HaPGP88MC+A97/UOkGaEZu8P+HW/ybA+QdlCoWFbRkSAGifbLDn4ILt5IjtdpJ0b+dTy5bqAfUz47cvmJfZ9wxy83rZLGJ0KBS/Zzq3T0i7crwAAgA9xgxsBE5NZBvgLJ9S/pXCFLUzApCxLzXRI6wzpAF1kc7UVv0e3JeAAxPwhPn0ba7OFHU4QPdssOvvBh2S1rv/LW6cCXOecU956K74sg3rs+HoTE+bTYwOhSN+dwP7UF8fCr5hfRqAuD8ZciTTru1nRjaCHTN5QwF/d1Q0mZd/v0HcuxXwnwvcsa8AKWVGVVdilWW44cWoRgiq0u+37OyNYmgkY3LHO4h0ynTb9uvaTX7Zf4+0DQDeWbNKj77/tvik1170PM2SY/OudsIwOhKe7xSeDiuXBJ9Otf1z8xLfbXPcyWZkI1BUhvuU0EDfplkpa3/p+JXAg/71wFDqot2tQySz76kQm3QMtdGZtOhHIFGgIIFPfJAR4x/OJBXloGS8I3fF/oOdHMdJw/6n3PTuXO93/33SbYy3ZdnocvJshjE61oLivYP4nGdEuwPLE+BozUfU5x0DPYva6DkUld9hxjZ8M23ijwB/lX9Vb0+DHdUZwBk+ZXQmLucBMesYCe1zvQk5x6OcTG3VycD2ScpyuYxcN+O+8uQAuZls726d8rjgRwPTzvv/pGmDXvbvR9x/vb8oSzPliAUARseioXUNBWEFfNw1SlDgLDwL/Mx/IMF0plctTGrKRSNLlwhnuL+xAmjolpS/R5/dHqNh8Qeg/i7Ki15qAUBQIVlVVxq1Pw79cfRH4ByM6hBgQArS2rfieGel8J6KrwAgoxmx7wFOt07p5Yvet3i+V/zMY+6q5qbsHYCOZylAjY5FJOIRi67HT0Ej8cIJaZt6TyAyMQBJ3fH0cWoqf0pJxUtmdGOrqK8P0bDIXxV0YS4jx72a8ncZOtQlFr0FmOBT0gHUVA7J6nElzgBilVt26VtEUO2x8b96fjEP4Tig3UBCqPZF6IvSB2E7WrTHF3XZVSCVxaxURm3MGJVx5BDEBZcUkes4FO17YNrs/q9rbaHihafdG955owNUEtYWDKPjsc5XAKAJ+nK2suUVCvL971K20wORx6mJjqW47Ear92FsMQ2LTgZ28LfE6K3ps9zpLYhchd8vGo5cCmRxYK0ng5y8ZT/C96hVv/y3fBEUphsTKSnL2K86DmjGHk4/e8Dezo5duqZFl3jxk4/00HtuiXcM5x+QkAUARsdD+cz/nJsAIhEP9PoAJXZHuJ7a6NNMn7iPGd7YQvxe/vUQ9/a0eZuSioXAfwOYP87ZmBrVyHx+T3H5VZn8Ag5Kc6Y2/or9B6d89z/uefzplefcYx+4Pf7euk87zk6Z2BcAowMipG/l7lz3BqAx4Bc+Gs95g1jlzdRUDrAOYGyS6ol9gVN9SnmSognL0iv4DyQdaVcIn2udJNPRcorL/5Dpb5GDsAbYNdMafvxO/WVQ74KU7v7PX7tahz35kPvKyuUd7xO5m7vaJoFNOk+PgHdT5r+Hk7nB3oyqrrR4OXjqkOt0wdXP0Ja29sq+WcalV31CLHot8P8CXyeQYQjnEav8O45MZUT5Gza+je/uLaHzwG+aaLkt7d7LbbqLnHA10NnnJsKlwA3WUTKST1G5iJLye7NiqII0ZGLDr0zh7v/n6T3HPPeku6GtrWMOg5zPVtlcsMmesoDiirtMDwniuqodcLyBCLuB7A7sBmwH9AH6Aj1p2Zi0xxHa9+4FJAyxaBOwDPRjkGUIH+PJQhz3Ddpa51IaWZeROtkQmkQX90JglwStF8PwGEas8j8oNeT0ujdTyt4bydr30It83slsJI/0c7BKI+uIRe8FzvcpaQg1kw6gZNzr1lkyildAh1JSvihr3DjQ1el4s+KH2KtnL/npTv1TEgCsbG7UwqcfdWctWdiBL8ZpE4WRRpsPjKRRXZ1HTvNh4B2HymBEDwLdzsfclQ8MAGk/1qKAKKgDOWGIVS4F5x3Qt0DmIfGX6L3HOzSk+dw/duwGaiuHoTKbRN03aPfyjkY4GnfNcmJVt+K4NzNi/DzrqB2c6VWD8XQ/n1Lu5+Kyz9LzBfUWkPN9i3HcS4ES6zAZQSvIX4nnX01paVYdfc4BZ3lKUyhtBaMHHeKIJD9oeXDpQq/w34+6Dc0d3feVT2xOMBLOtIm9ceQskF9B41F8/uk9KUlppB9oP+BkUNAQNCz6DDKgcGJRxb+pqbwGkauT8LTtQMfiOWOJRecg3IzqHRRXrLEO3AFRb3gAG4q3pe37rWh5koLw+/j9wqbyG+oiY20jLe079D9xQmMYMW5BNr6dg3rvZ1KDC/K7cM7ueyd1978p3saY5550z3jkPnP+AYQlpgQjIUQiDrGq04hVPojjfAxSC/wUv+dug6ErkBkF8IrLfw8ku6LvISgxkGXEordQO/FI69AdiJmRMCr+Lrgqn7Ci+fE0np88JJD0pD1w88+yTpO2zAE9keKKX2ar8w+Qg8jiTGrwyP0OCoVzkle/7OUVH+uwJ2e5Cz5da7mwv5ikdbEpwQiU6uo8chsvRBkFumemHUtMvyBdlOrqC8nZ0BnktCQ/PR+4AHUuIBZ9G5HrUe9W+yqQ5TTm/Qr5opDTVvZb/kEkEk/vsRW6BfXG43eSEr0IuMU6TtrgAfejTKWk/NmO8MIOXubs5nbOyeWSvfZPyu5/3PO49vU53jEP3B435/9bLDEVGIFRU3UmOY3voEwH9jSFBERpaQsrWs6AlBZU2hfVv4IsozY6k9jk/c0wWRt0XuRfiN6W9u85YtwCkOf8vypHW2rdNPFnhEmge1BcfkZHcf4BcmhoXkBBuJUMONs6bM+BTp/8xJ8EWPrZpzr8qYfdZz/+0Bz/7wwbxS77GQE4/pUDcGQGqj82ZSSISCSO6jCmR99AJUp79fdUkI9yIbjDqIk+AXotxeWPW5XhLGHatf0gfpxPKfMornglM17YuxnE7xE3weFCYIJ1oKTzPip34VDPiHEvddR5yCESaQXmp7/PKZTuf3DCd/9vXzDPO/Cum+Pm/P/Q3KdzTQmGL2JVwxB5FcWc/0QjohRV/Bmc44BUH98ThBMReZTpVW8QqxpGfaSTGSnDCbkX4jvrlNyWMe8bb6kniKJ76lxAJOJYB0o4HyHyD4QRhLy9KS7vR0nZGIrK5nTkTYjPd4PmAgPTuaGn9Rvg7N6tZ8IOBjc0N2nR0494DyxZ6NlY+UE2sKJlianB2Crq60M0LKoDvdiUkWSKx/2HGVWDaNEqoJCEpgndHOeH/UBvpiH8B2qqqnDzZ2Rbmr0OQSTioDrMpxSPkP49Y965NLKOmsr7EDnP5yDYmb55JwCPWUcKBBdYBMxF9W2EuTih17P5Iq//AED1dUTSujz1qEFDErZYPfHhEr3k3/+Kf7RhvfWITU9YbxCJWJBkbDkzI2EaFv0DON2UkSLa86sXE6ucgTrXIXp4GrRqF0RryGkso6ZyHMXl9XY0KIPYNu9YlF19SnmGwvKMykiIcDNwnn85MtwCgM2iGViz8ddqVJcivA+8D/IBHkto7bSI0aObTFVbFgA8h6Rv1o0hBdvL4dvtGHgDm+NxJsx5xr1u7iuerTabPVv913RgbDF1dbk0rbkfOMmUkQa0n7U+gljVaeD9ESQdLufugsgd1EaLqJt0MYXj3jNDZQAeFwWQtKuAWFV9Zr24OmwsIehT0OnEKntmR5YseQS8m7b855wW8NqPVHnSiqMbNv6+GZU1tOWuMcc+UQFAbu9Xcdc0kh65tr/FmAMOCXz3/+3VDXrBkw+6c1c1mO+/ZTxnKjC23ElYU2POfzoGAmX/RPVBYtETcaQY5RdAKMVOxDG43uvEKn9HccX1ZqQ0ZurUHkjLrwOQtA/oPh1Ui2HUOReIZfybqLeQkoq7bGBkBu2OdWFhG5CWt+/7de0mp/YbEFgAoKrUvPWqd+i9f4ub87/lbhyh5hdNDcYWUVM5CuVSU0SaIqKUVDxGUfnphNgN0WtQUl3texuQOmLRG+2ScBqT13wO7XUfDH+eyXDTgZFscr7i2s3G4eh0a+CV+w9xcpxg/P8P1q/Ti576l/v0R++b4791vEZhpMHUYGw206L7IlQm6WnLUObhsATlY4TlqCzDYwOOtxbBQ/kUnFzwtsHRTnjSBUc74Tp9cGRXVPsB/YBdgf50tIpk7eewJ1Af+QOrwr8GilKcqeliGvIGUB05jdLIOhtQaRc9muMaiBoZzHXR/bi83DLsGSkIAHAeAS+STo3rmRdm2J4DA/H+71083yt6+lF3TUuzWX2rJyl5xJRgbDbtGX9uAvIS9IQNwAPAQ6jzJCXjlgcqfUZVV9rcgaizP3AKyskJfJf0YmikFbgDuIPaawaioWLgfKBrCiaeY8gJP06s8mSrJpxG1F4zEOUQU0Rg3thwYLQpwkh+AFAy9jWmV32Msn26NO6yfQY52+T6+/r7aWszVzw72719wTzLXOMX5VFTgrHZrFp0CSTEQXgXdAqhltsojDQmrP3tGXOe3/irjrpod1xeA98ZTzKLoqveAoqZUVVGM79FdCSwd5JbcQjwAPWREzYGJ0bK14OQ7f4Hu76eR11d2cYj2YaRcL7cXRdRlIfSpWG5jkPRvgf52v1/atlSPaB+Ztyc/0Bmp+X02fUl04OxWdTXh1DGBCpT+BDV4axo3ofiiusT6vx/F4XlnxJE8Z9M5eKyzygpi1FUti+enIByH+15t5OEHM2q8DQbXGlAXV0u7V+EjOAowF37c1ODkSy+XhZe9G5ULkmHhp07YG9nhy7bbNX52xY3zh9fec699vU5nqd23D+gxfcehg51TQ/GZrHqvdNBBgQXf1JPS14ho0atNeWmeioQBWYDs5l2bT+c+EjaC4sl/niQcimxqlkUl/3TDJFCvNW/ACkwRQSu2OHA/aYHIxl8fYe99+5PIynP/gBA6f6Dt2r3/501q/To+2+LT3rtRXP+g114LbWXsQX9RS4LTpb+kZLys835T0NGjllKcflYOnXqj8j/AxKfJEC0hupIN1N+SteDi0wJCencP+OGa7Y1PRjJDwCGDnVR7k51o07ceVfZv3fBFu3+qyoz/vemd/i9t8Zfb1hpnn+ws/1SVja/YHowNosZVV2BYwKS9gdKKv6fKTXNuWT0aorK/siGUH/gdwkNBJSdyAlfaUpPEXXXbA9ysikiIeTQGvqtqcFIfgAAIO6MVDfqyv0O3qJCNJ80bdDTH7k3XvT0o25j3O7PJGDBvZlIxO5RGJtHMycSSLYcuYuisogpNIMYO3YDxeVTCDEAtJLE3Zm4InFfAcTnBpKXm9U2jofO45vHh40Au58MMyUYqQkAiq56C3ROqho0sFcfOWGn/pu9+3/f4vneAfUz4/96f5Ht+ifG+3eh099MD8bmzyre8QFIWU6n3BEbz5sbmUZh+acUV4xH4j9CqU/AE3qRm39BYqY8/O0iiXTJcq/hAuvgCV1zBzJt0kGmByP5AQCASsrKr48adIgjsmn/f11rCyXPPOae/dgD7qrmJrNk4rYjHqHkdx+YHowt6DMDAxAykUtGrzZdZjhFE5ZRUn42KmcAwdZpUE1QFhrxFwB40jlr7Tlt0kEo+1nHTjAhz4IsI0UBgNv5ToSPk92YbTt34azd9tzk5d8XP/lID73nlvgN77xhx1ISjjfFdGBsmWPGPj4lNNGSd6spMosoKbsXzxsIPBGg1EOprewf/KqoPr8AeNn7BcAc02TNob/ZmGrVMBLGd5/jKy1toSZai/CHZDZm5MCDQuGc7z9aGPc8oq+94F7zynOeaxl+ksErFI//j6nB2Gzqru2DG+/jU8oLlvEnCxk5fhWRyCkU5N8OelYwjpJzDLAkYOfLX6ExzdIjQHV1ubhrzg1Av/ch+mL2dnS5GvDbB/rirj0FsHS3RpIDAICW5usJh8cB2ySjIZ1zcrlk70Hfu/s/f+1qHfbkQ+4rK5eb55+0eUyvNSUYW0Zrn+/7sLgFDsKLpscsJRKJU1d3Hu7aHUCPDGCOOhK4JeAA4DPET5vIziNA8TUnIxT41q7oGIorFmVtH6+tGoTquQF0xAssADASyfev1KMjqxFNWtXF4Xvt5/QO5397CGxM73novX+Lm/OfVObxSct9pgZjy5wE8V8MSnSpKTKLKSxswwudRxAZgpRBgbdPWOtTQvcs9Rb8H/9ReSGrnX8AT/8RkKRfcOOUXjZhGMkPAACaW6YAaxLeCBEu3+/gb7VlZXOjnvHY/fGipx91N7RZes8k94zfW+pPYyv6TQABgKw1RWY5I8csRakOQNKuCWid3zVvu6w7v33jlF4opwYQ3P896/t23+ZHgSASGOTR1nq2TRZGagKAUZG1qFYnuhGn99/D2a1bj699dH3sg8V68F03x2ctWWi7/klHX6WwzD49GluzwId9y/Ck1RTZEYjHAL/ze18mTw72zL3/ADSEu3rnrDJVuyPqt7ZHG3GvPuu79dBIK8I9wSzFWE0AI0UBAEBL3hTg/UQ2YtSgIV+0oynexpjnnnR/8fDd8eWNG8xCqcCTcZZ/3di6BUv8H+sQ7WyK7ACUTPgAeNW3nG5u72DnP/WfrlT5UXaN60By/z9G6fiVHWQivCMgQYcSq9rTJgsjNQHA6NFNCBMS1YAhBdvLodvuIAAvr/hYB999c7x67it29CRl85bezcjyZ0wRxtY5T/iP2kV6mCI7CvJSAJ0u2IBR+NC/DOfArDFRuwN6WACSbu8w3fqTln8DHwW0KFvqVSNFAQDAiLI7QZ9LRAPGHnioE/c8rn19jnfMA7fHF3y61naeU0cjOVJuajC2mpAG8NlOdzNFdpiI0f+F0LacgAMAN4DChzo4e2wUiAO6ng2hBzpMt26/PxfUcafziUQcmyuM1AQAIgpOIWhLkA/ftVs32b9XX/nprDvj41982m3zbOM/tfO8/pHC8vdNEcbW96HcBv8y2NcU2UEQWZd2bWru/GEAUn5CJJKTBY6sAwRRcfl+xo7d0MH6dlDZgHZh27xjbbIwUhMAABSXvQsyOciH9w13YfDdt8Sf/fhD2/VPvef2Jjm9qk0Phi+Kxq4APvMp5fCscJ6MzfGS8nyLyPHd377OqFFrUT7xKaUnBZ0Pz3jztDueu/hfXjpA9p9vMmLcS8B7wSzPYpeBjRQGAADxzlXA20E9fM6Kj3V9myX8SAPnvw0NXUJhoeVaNYJgoc+f70rfvONMjR1h6mEH/zFE2/rg45Ig1rksOLsdzOXfFaxseaLjxbaiQFBfAX5NTWQbDCNlAUBpaQuOdx7QbKrLKiKUjHvd1GAE5DQs8L94OpeYIjtCX9GDfEqI07NtVQLa9VYAQs4hVtkzY20zeXIXkDMCkHQnkUi8Q/Zvj6CyAW0D4V/bhGGkLgAAGDF+HsrVprqs4T/02X2KqcEIDJHnA3CeziA2eX9TZhZz45ReCMf4lLKIoZHgPyM7vBGM0yZjMtY+nd0z2t/BrxPs/b3D9vGR5W+DvhlQn7RsQEaKAwCA4rJqhIdNfRnPCqTTBQwd6poqjOBmFX0qkLlJvelZV1HV+JKWllKgk08p7yamD0tQR1auZPqkPTLUOwjC4VxIScWcDt3Pg7oMrPyEmj/tjGGkNAAQUZqbL0T1PVNhpqIungynaPQy04URKMub5wL+swGJHo675q+oiil1M6itOoSpU3tkRFunRfdFZJz/aUxeTEj72rOhzQtAUmc87zamTMnPqL5U86edUX4SgKTbraik3oH/itft/prk/NYmOiO1AQDAqMhaHO8swMr1ZuScxHhGlj1uijACJxLxQO4NSFoRtZNi1Ec6mWI3Naa1jryW5dRE76W28gxmRsLpGahU9sfRhwD/TnGIRxPY0kcCknMI4db728/UJ4nqSDdqo4XURO/cuuA793xf/sHndOTjP1/MYBVLgOcDkmbHgIw0CAAAiq56Czgf1I6QZBZ3Ulz+F1ODkTCEGQF6tiNoCD/L9ImHm2K/h7pIZ2AgkIfwK1Tupim8nNroTKZXnUh9fSgt2hmL/hyVOSD9ApC2guVNryasrZ4TpPP6U7p4L3BddL+E6rcmehS10ZnkhD9CmY4wlBuu2XYrgskgHM2XGDl+vg1OILgqyHsybeKhpk4j9QEAQHH5Q6AVpsqM4WninS+xz7JGQikqmxPY5bd2huA5zxGLPsn0qhNNwd8gHj4I+GbthO4oF+LpYzQs+oDa6F+YPvHwpAcDqkJt9CRi0YeBWUDfgKLMWzZWXE0MI8e9ihBggKEDCfEqNdHp1E3cKzinv2pvYpVl1ETfQfgPyoXAl18b4s5RWyRv2sRDEfy3T7Hd/88J5dwJBJNmOyT2FcAIhGCK7RSP/wu10V1QRppK05q3CHEmxaUtpgoj4YhUooHlwf6cn+DpT4hVLgV5GMebRWP4KUaPbkrou0yd2oPclv1BugVznDdoXXPIJv7G9ihXoM4VNCxaTaxqNniP4YVepUvjPIZHgk3tXBfpjJt3BMqPqa06G/hRwG/sgTc9CcHLDSC1ga65QiGucxmx6MvAoyhz0Jw3aXVW/GA/jlX2RJ3twNsZYRDI/sBRoP1B4HtvysiRwD1b5GD67+IuOHditFM4poFY5b9ATvPfJ+UcqqtHU2rruJEOAQDAiLLfURvNB7nY1JqGqL5Hq/dzRl31qSnDSAojyu6ktmoMcHACPN5+QBGeU0S4tYVY1QLQd0Hng/MuqqtRacTx1qJOI+K1L5ae5uBI1y/EONoJT77cLZVQGHV3aC9QJTsjsgN4e0PLxiMr6frhTA7Zgrb1Aj0L5CwcD5rCLrHoeyhvI3yIyErU+xiVT77QIUBIN+BKK6GQ4Lo9vtClhMJ4uguO9kOlH+huuBwA5JKw69tyF8XlixKu1ua8Wwi3TgB2DDxkgyHAEASQOISBWLQZWAM0bvw7AvQAOgN5iMKWKlXZ/C8A1dV5aOM5AbzfbErGLbdJ8Kt2cG5F9LQAJPUid8MvtiioM4yEBgAiSn39SBoWbQOcbapNp4mHD9Hckxk15mNThpE8n1SUmqqxiM7ecq9li8gDHQgMbH+MbnSdNjpLX3WanG80w/vGf6vH13dTNcFND2yQ+zkXHAJ+hGzcpVf9Ugdf1Z37+b836uhzXar3hdqTFCA1EtJxSVHr6NFN1Eb/iDI9SYYMA9sHLPNAJk/uwtixm07YEWr6eXuA6HvNseM/36Rz0yyawms3BnR+9XuBBQCGX5xApQ0d6hLqeRGq9abadPELdDGOHsfIMUtNGUbSKSl7CtUaU0QCqZ1cAPTvQJHlnzam6UzSKtnzJhJVbyA55JDvHbZ5qvWGBRKgheU+G5jfYHikGeGugMbAKVRP7GtKNdInAAAoLGyj7+7DUG4y9abc+38XJ++4jWnIDCM1dG4ZizDXFJEgPLfjZAURZtNn10lJfWZhYRvIhUDmZrtz9MhN/p3qiX1BTgngaf/k4rLPbGB+15Ls3BqQpFxyQ+eaQo30CgCg/UtAcVkRwlRTccp4ibgeZ4W+jJQzPNKM650JrDBlJMSrGNJBXnQRrnd2SiqXF5e9ADopg3W36QCg3aH0X3lbA0t5mX0UjX0WWBzQuB9mCjXSLwCA9vO/ReVliI4A4qbqZPoDPECo+URKx680ZRhpwcjx8/GcU4B1pozA59pDOsBbvkeInzBy/KqUtaBPSwRhdobqb9PpX4PJ/b+KnJ6P2KD8Ab+IgO5HKAdRe81AU6qRfgHAFxFvxU143pm28CdrguHPrGw+m8JIoynDSK8gYNyrON7JgAWmgQX7+nk2mWzmbTT+k6Se+/8uhkZaaWv+NfBGBuqwKyuWDPre/zstui/BZOuqbz8yZXwvnndrcOM/x2oCGGkcAACMHP8wqocBb5nKE8Z60PMoKq9IaHEcw/DDiPHP44YOBeaZMgKgpnIPgsjakr7cgTYfRsmED9KiNaWRdbjys4y80xLS708H6kgwx0ns+M/m+EPzgRcDigDOS5sq34YFAN9LScVCtPnHliEoEei7qBxJccVdpgsj7bl87GLy5DBUpwEWrPqawZ1sPf6zBuUyisvPpSSyPr36b9lHtDUfBZJZR12877kIXF8fAj0vgCcsobjsvzYoNwOR2wKStAMr37PK6EaaBwAAJZH1lFScj+i5wFpTfxC+v/6dDTmHUVL2jinDyBguLvuMkorL8bwjgJdMIVvrSOi2WRZEKXAbue7elJTfkLatLI2sY0XTqYheA2TGkRdhl+/881WLTgB2COAJt288425s0vMK3RFYv3EcOwZkZEAA8DlFFfeQGzoU4XkzwVazAoczKKkYvlkFXgwjHRk5/kWKyw8BPRGYYwrZ4rn0z0h8F5QrQTJ599UDnYXnDKa4/LdcetUnad/iSCROUcUEXA5O4yDWA54AHcqK5qO/JzIYFtCT7PjP5lI4pgEI5guS6ulMndrDlGpsKTkpe/KlYxejeiy10YtBokA3M8dmcw+h5sspjDSYKoysoLjiCeAJaiceiedchDAU2CbD32o98DbCmyhzUXmLzo0vBv6UognLgL8Cf2X6pD3wvFOBnwNHE0Rax0QifIjyN1RnUlKxMCOtfHn5XCKRw9g2fCaqV4Hsn+IWtaAyG/EeINd74AeDqepIN1R/GcAzX2dk+ds2kW2J4y5/Q/TUACTl06n1DGCGKdXIjAAAPk+JdSM3VD1Cq05F+KWZ5AeZj2gpRRVPmioS7pjMR3nCp5R3TZFb6syO/y/wX2oiV+DknYTKKcApBHNEIfAlHPgYWPLFL2UJIVmC571HUfnipB+JGDFuATAFmEJdtDseJ6H6C5Dj00iH7wL/wpNZNDQ9lRVJC9rfoR7Vu6it+hkwFPgZ0CdJLViB6uMID5DnPLLZhbhyOh8I3nMBjIRbMbaMzk2zaAr/K5AgXXQ3/zbU+SD+1jzHsTUvGXihRhz165+4klYvdV3lsYS4Ng12UNKNtaCTiXepprS0xdRhdChUhesr98R1BqM6BJGDgB8BBQl64jpgOdCAsLLdueITdON/iy7H1Q/xtlmaUeOxpnIA4hyN6lEI+2zUYaIzCK0DfQORl0FeIe48x+VjF3eIfltfH6JhyRHgHQ0ctPHXrgFIjgMLUOYivIjDbArL3rTz94ZhbFHcmJaT5qr3hqEyHr7n0lLH8XyaQK4n1Fxlx30M4xtUR7qRk7cHODsiXh+QAlR6AD03jp8wSD7oepA2VBWRtRt/+lNEV4M24DmrCelqWmUV5K/sUEF23bV90NY9cGUXRPog0gfV3kBvkF6g7V+JlR7It9aLJqAZtBFkFbAKZSXCRzjee7Sy0IoRfoOpU3sQbtwJDe0Msh3oziCdUS8fccLg5YPTCfj0i/4qbMDzPiCkK2hzPmCb5gUMjzSbMg3DyK4A4HMikU4U5F0ElIHs2MHs0gzMoMWdxKirPrZuahiGYRiGYWR/APA5dXW5eKtPQ2U02V/xsgGYSShvGoWjzPE3DMMwDMMwOmAA8FVqrvkJEroE9DSQvOwxg85BuAmn5Q4KI43WLQ3DMAzDMAwLAL5KXaQPXqff4Mk5iAzOUKd/GcjdeNxs6dMMwzAMwzAMCwA2l9rK/ngyFOFU0MEgofT1+XUxIg8j3t180vp8VqS/MwzDMAzDMCwASBnTJvYm5ByP6onAESB7pLhFDai+ADxJKPToxhzdhmEYhmEYhmEBQEKojRSg+YchHIh6+6Hsh9AfJBHv3QDMBd4CeRN4gaJx8y03s2EYhmEYhmEBQCqZMiWfLs39cJ1dQfshzrbfyHudB9r5G2pqA1mPaiMOq1BtQOUTkA9QWQLxpYwcv8q6k2EYhmEYhpHu/H+ikWtVNMfr+AAAACV0RVh0ZGF0ZTpjcmVhdGUAMjAyNS0wNi0wMVQwOTo1MzozOSswMDowMHJDVCkAAAAldEVYdGRhdGU6bW9kaWZ5ADIwMjUtMDYtMDFUMDk6NTM6MzkrMDA6MDADHuyVAAAAAElFTkSuQmCC;" vertex="1" parent="1">
          <mxGeometry x="287.00000000000006" y="258" width="216.34" height="40" as="geometry" />
        </mxCell>
        <mxCell id="dtRiRAH2Uqq6aqAW33ka-8" value="" style="image;sketch=0;aspect=fixed;html=1;points=[];align=center;fontSize=12;image=img/lib/mscae/Cache_Redis_Product.svg;" vertex="1" parent="1">
          <mxGeometry x="590" y="138" width="83.33" height="70" as="geometry" />
        </mxCell>
        <mxCell id="dtRiRAH2Uqq6aqAW33ka-9" value="" style="shape=image;verticalLabelPosition=bottom;labelBackgroundColor=default;verticalAlign=top;aspect=fixed;imageAspect=0;image=data:image/png,iVBORw0KGgoAAAANSUhEUgAAAgAAAAIACAYAAAD0eNT6AAAABHNCSVQICAgIfAhkiAAAAAlwSFlzAAAOxAAADsQBlSsOGwAAABl0RVh0U29mdHdhcmUAd3d3Lmlua3NjYXBlLm9yZ5vuPBoAACAASURBVHic7d1ZdFzXnd/73z4FVGEqzABFYiQ4iCJtkSKpwZJlU6Imd5Lb42X6dlbSL1nLLx2vvn3TSXcnikqtthN33/hBWbnrum+yVqf7PtyW2xn6ZrUta6AHWdbAUTJtDSQIkCDFAQRIAASBAursPFBy1LIGkv9dqKpzvp93/LEplM751R7+WwIAAAAAAAAAAAAAAAAAAAAAAAAAAAAAAAAAAAAAAAAAAAAAAAAAAAAAAAAAAAAAAB/kKj2ANFpfeKl1UdldkXN3eKet8n6tpNWSWiRlKzw8ACiXoqQ5Se9IGnVyr8Xev9LUOL/3zX/+2dkKjy11CAArZLiwt8FH7b/ivf9Hku4TL3oAeE/ROT0fS/8pE1/6r2OF+xYqPaA0IACUWU/hSEtjtPhbzut3vNRT6fEAQJU76+T+7UJT9H+d/d2tlys9mCQjAJTR0OMH/4GX/2NJayo9FgCoMRNe/p+efGzHX1Z6IElFACiDNYV93RmX+VMn/8uVHgsA1LhvluqXvnjqD+68UOmBJA0BILD+wv5bI+f+m6ThSo8FABJiwvn4F8cLOw9UeiBJQgAIaOjxQ/d5xX+tq7v5AQDB+Fnv3d89Wdj+/UqPJCkIAIEMFfbf753775IaKz0WAEio+djpFyb+1fbvVXogSUAACODdaf/vS2qr9FgAIOGm5aJ7T/yrbUcqPZBaF1V6ALWup3CkJePcN8TLHwBWQod8/F/XF15qrfRAah0BwKjRLfzfXtpY6XEAQIqsLyr77yo9iFrHEoBBf2H/I5Fz36r0OAAgndxDJx677ZlKj6JWMQNwowp76yLnnqz0MAAgvfyTeuqpTKVHUasIADdoyLX9pqQNlR4HAKTYpoE3NvzDSg+iVhEAbpCX/vdKjwEA0s55/7vynuXsG0AAuAFDjx+6T9KWSo8DAKDNA48fvLfSg6hFdZUeQC3y3v96qO2T+Vy9tg92a11Xq7pbcsrVsZwFIJmKpZIuXF7U0fMzOnjygi4tFIPUddL/JokOgdeJaZPrVfDRoDt4WtIqa6k7hnp0/8Y1qs8wEQMgXZbjWN996x29NHZO3l7u7Al/2xoVXGwvlR68ea7TYHTgNgV4+T+4qU8P39LPyx9AKtVFkR7Y1KdHNg+EKLfq3WczrgNvn+vkFT1srXHrmk7dNdwbYjgAUNN2DnbrtoEuc50Qz+a0IQBcp8j7hyw/X5+5mnoBAFfdv3GNef+T9dmcRgSA63DzV1/Ie+luU43eNjVn2XsJAO9pqq/TLTe1m2p46TM3f/WFfKAhpQIB4DrMX2m6T1K9pcbNq7gzCAA+6OZe87Mxe2WhcVeAoaQGAeA6RPKmNaZITsNdBFQA+KDhrrwyke1gmveOZYDrQAC4Dt7ZPlyr25rUVM/0PwB8UDYTqb+92VTDObER8DoQAK7R0BOH10pab6mxrptv/wDwUUa6W60lNgwWXh0JMZY0IABcozguPWKtEeDDDQCJtT7AlyQfZVgGuEYEgGsUOdsRk1xdRn3tTaGGAwCJs6q1SU3WU1LsA7hmBIBrUdhb5727z1JibXdekaPzMgB8FCdpxLhR2snv3vH1fabTWmlBALgGA1HrZySZzqhYP9QAkAbresxLpa3nz2buCDGWpCMAXIvYPqVEAACATzbSlTffUue97ch2WhAAroH1aElXc04dTblQwwGAxGrJ1as332iqEYl9ANeCQ+mfoO8rL3dpSTssNUa6wu3+X1gu6dDJC3rz3CWdn7uiK0ulYLUB4Ho01mfUm2/Uxt42bevrUkO9rZ//e0a68zo7e+WGf97L7+z7ystdp/7gzgtBBpRQBIBPEC3XPyjjTEmo8/8/PXNRf/OTk5ovLgepBwAWV5ZKGp+a0/jUnF4cPatf2DygTcae/pK0rqtVPzp+zlIik1mu2y3pKfNgEowlgE8QGY+UZCKnoQDr//tOTOqbh47z8gdQlS4Xl/VXh45r/8lJc63BzhZlM7bXE22BPxkB4BN4+QcsP9/f3mz+IJ+YntPTP5mQN1UBgPLykr79kwlNTF821clETgOdLaYaTrQF/iQEgI8xUDj8KUkDlhrrAnT/e/qnE4p5/QOoAbH3evqNCXOdAEun/YOFA5vNA0kwAsDHiUrmKSTrh/j0pXmdmbnxzTAAsNJOX5rX6UvzphohvjwpsnVwTToCwMdwxut/m7J1WpW3tf9969wl088DQCW8aXx2dTc3qLUxa6rh5FgG+BgEgI8wXNjbIO/utdQY6c7L2v332OSMrQAAVMBogGeXtYGa9/p8/9detDUVSDACwEcoqeNzkkwfHOsU1vzSst6ZsU2jAUAlvDMzr8vGU0sB9gE0RjMN91iLJBUB4CNEik1TRyEutTh+YVaevX8AapD30tiFWVONke5WRdbGwMabXJOMAPARvPFD05tvVEvOdiHVsfNM/wOoXaOTtgDQUJfR6jbbPir2AXw0AsCH6P+jQ32S22KpEWIH63FjegaASjo2OWM+wGxdBvDSpwcKB9YYh5FIBIAP4UqlhyTbvNOI8UN7bnZBMwtLphoAUEmzi0uanFsw1Rixf5lyzrkHrUWSiADwIaztf+szkQY7bF2sQuygBYBKs55k6mtvMl8y5D37AD4MAeCDCj6S025LiaHOFmUi28aV0QsEAAC1z7oPIHJOw8YN1c7pIRU877sP4D/IBwxEh3Z4qcdSw7r+vxzHGp+y9dIGgGowPjWn5Tg21bCeqJLUPaT926xFkobrgD8gkn/YvGnF+GEN8T+Mk35t/LHt3zQVAZB6g4UDvyanb9zoz7/3hcaymW99gE3V3mUelnTAXChBmAH4AO9lWitqbahXV0uDaQzWKTNJpZLP7bUWAYBI7llJpo4+1iXNtsasOptyphrWo91JRAB4n5u/+kJe0l2WGiGO/wVo//vyRGHLlHkgAFJvrHDbRUmvWmqE2NRsfbY6r3vWF14KcMNQchAA3mf+SvNuSabuPdYPaYhjM5L7jrEAALyPNz1TQhxrth6tllRfdPWftxZJEgLA+0TGKaJI9t2qIRpnRD5+2lgCAH7GOWd+plgbmw135c2nq7zxiHfSEADex8u2/r+6vUmNxvOqAdb/L45tPmaargOA9xvfdPQVSaZlRWtr82wmUn97s6mGc6It8PsQAN7VX9i/XtI6Sw1zy8oAl2fI6Vnt2VOyFQGA97n6TDFtLA5xuVmAroAbBguvjliLJAUB4F0uisxTQ+u6bB/OENdnOtmn6gDg59meLSGuN19v3wcguYi2wO8iALzLyZumhhrqM1rTbru1KsRO2UxcYgMggOBKPvqWtYb1hNOq1iY1ZW3ta7wilgHeRQCQpMLeOnntspQY7swrcrYNKsfs6/9vjBZ2nrAWAYAPOlXYOiH5Ny01rBsBnexdAZ387h1f32e7qz0hCACSBtR2tyTT/P26HtuHslgqaeKitf2vZ/ofQPl42zLAyenLWly2bVFa12PeB9B6/mzmDmuRJCAA6Gr7X2uNEeP6/+jknGLjDhnnI6b/AZSNc7YeI7H3GpuaM41hpCtvu6v96kA4DigCgCTJO9vZ0K7mnNobs6YxHLff/lecV/b71iIA8FEWmqLvSlq01LDudWrJ1as332iq4ZxjH4AIAFpT2NctabulRpj2v+b1/x+cL2yxRWsA+Bhnf3frZTn90FIjQK8Tc1dAL7+z7ysvd5kHUuNSHwAyV4+EmP47WM+mXrxS1PS8KVRLztaqEwCuiZfpWTM1v2h+3lmPXEvKZJbrdluL1LrUBwDnbWtBmchpqLPFNIajxg5ZkpTh/D+AFRAZNwJK9hnPwc4WZTO21xdtgdMeALx3Mq7/D3TYP4gBzv+fOf7oba9ZiwDAJxl7bNthSe9Yalj3PGUipwHjFy8n2gKnOgD0P7H/U5LWWGqsM55JDbErVl7fkXPWO4QA4JNdfdY8aykxOjlrPvVkbb0uqX/oif23WIvUslQHgIwy5gRo3QAY4lys9WgOAFwX456jYik29z0Jsfna+3TPAqQ6AHjj+n9ztk69rbbjKNbOWJK880vPWYsAwLXKZLLPSLaby637ALqbG9RqPH6d9n0AqQ0A/V97sVHSZy01RrpbzQ0prL2xJX9orHDHGWMRALhmx//Fp89K/pClRoi7T+xtgbXr3XdBKqU2AGgm93lJpj+8dQ0qxO1Y1tacAHBjbEuPIW4/DbAM0BjNNNxjLVKrUhsAMs52/a+TtNaYPkPcj+0c7X8BrDznbfsAvJfGjEugI915RdZ5WJfetsCpDQDe2P+/t7VRLTnbhVLH7Of/L9d3NL9oLQIA16tFDS9IMh1hsnYFbKjLaHWb7Rp2p/S2BU5lAOj/o0N9kjZbaoTYgWreAOjc3qNf2mBsIQgA1+9IYUtR8t+z1Dg2OWPbSSj7UqyXPj305X2rjcOoSakMAJk4th//M07/n5td0MzCkm0Qxik4ADAxHkGeXVzS5NyCaQjWVuySnC9FD1qL1KJUBgAf26Z8splIAx22LlQhdsCWfMQGQAAVk3GZAG2Bbc/Cvo4mNdRlTDV8nM5+AOkLAE89lZHzpksghjpblIlsG09G7df/jp0qbHvLWgQAbtTxR7e+Kem4pYZ1H0Akp2HjMoBzekgFn7r3Yer+wf0/2bhDkukaSOv6/3Ica3zK1gVLEt/+AVSed89Yfnx8ak7LcWwagrUfgKTuIe3fZi1Sa1IXADLOvv5vXXMK8YG3HsEBgBCcsS1wiC9E60O0BXb21vC1JnUBwMvW+rGtIauu5pxpDNYpL0kln6vfay0CAFbOu+ckmTr6WJdE2xrtz2Wfwn4AqQoA6wsvtUr+TkuNEMf/7O1/9dKJ37912jwQADAaK9x2UdIrlhph2gLbns3O6+6bv/qCeS2hlqQqACy5+t2STN171vXYPh8hjr3Iiel/AFXEdhwwxLHoEfv1wNkrC427rEVqSaoCgPXmp0hOQ522D1mIxhexYjYAAqgakbc/k6yN0Ya78ubTWWm7HTBVAUDO9sdd09GkxnrbedPR8+b1/+mJTaP7rEUAIJSxzcdelTRlqWFdBshmIvW3N5tqOJeufgCpCQD9TxzcIPkRS411xjUm76WxKXMAeFZ79pSsRQAgmD17SnJ63lJiNMDlaAG6Am4YLLxqek/UktQEgIwP0P7XuMYU4vpLx/l/AFXIyXY1+XzRfj36evs+AMmlpy1wagKAdW2noS6j1e22W6dC7HTN+NjUdAMAymE5jr5trWE9IbWqtUlN2TpTDW9cKq4lqQgAWwpHspLfZakR4t7pY/bz/z8dLew8YS0CAKGdKmydkPSGpYZ1I6CTvSug83pgx9f32e56rxGpCACXVbxbcqZPhXVtqVgqaeKisf2vt02xAUB5edMz6uT0ZS0u27Y4resx7wNoPX82c4e1SC2wzZXUiDhAhyfr9b+jk3OKrTtcnP/twccP/LatCABUp9h7jU3N6ebethuuMdKVl5Nsx61j/5CkH1pK1IJUzABItqMd3c0Nam3MmgZw3H77HwAknnWvVEuuXr35RlMN52xXxteKxAeANYV93ZJMtzwF6DAVYv0fABIvwF0p5me2l9/ZXzjSaR5IlUt8AKiPMg/J+O+03jR18UpR0/OLphoAkAZT84vm56W1Z4ukTOSKu61Fql3iA4CPvWkqJxM5DXS2mMZw9DzT/wBwrawzpoOdLcpmbK83L9u7oxYkOwB47+Rkauow2GH/IIU4/w8AaWHdMxXii5sz7h2rBYkOAP2PH/i0pNWWGtbrf9/b1QoAuDajk7PmU1PWzq2S+oee2H+LtUg1S3QAyLjInOCsm0lCnGsFgDQplmJz3xTrlzdJ8j7ZswCJDgDeeP4/xHESa2crAEgj6z6AEMe3k349cGIDQP/XXmyU1z2WGu81lLCw9rYGgDQKsXfK3BZY2tX/tRdt3wKrWGIDQGa2YZck0x/OOoU0v2S/3QoA0ijE7akBlgEao5kG0xfJapbYAGCdunGyr/8fD3C/NQCkkffSmHEJNcQlbgrQSr5aJTYAyNnOcIa4VvIY5/8B4IZZuwI21GW0us12jbtTctsCJzIA9BUO90syHd9YH6D9LxsAAeDGHZucsV3qI/txQC99eujL+0zHyatVIgNAXRQ/Yq1hvf733OyCZhaWrMMAgNSaXVzS5NyCqYb1WS7J+VJkaihXrRIZALy3rdlkM5H625tNY6D7HwDYWU9S9XU0qaEuYxuE8Z1SrWyL3NXoqacy+qlMlzgMd+WViWwbR0bt1/+OnXhs+1prEQCopMHHDx6T/MiN/vzo5KzuGu694d8fyWm4O683zly84RqSe1gFH6ngYkORqpO4GYDhn6y7XZLpGkfr7v/lONb4lK2Llby+bSsAANXAP2P56fGpOS3HtveutR+ApO4h7TddK1+NEhcA4sjeucl6djTEB9Y5/x1TAQCoAs7bnmUhvlBZr3SXJO8yiTsNkLgAIGPv5rbGrDqbcqYhWI+uSFrO5Pzz1iIAUGn1WnpWkmlHtHVJta0xq65m23Pd2lq+GiUqAKwvvNQq6XZTjQBJMUD735dHf2/nJfNAAKDCjhbumpH0qqVGmLbAtme787q7p3DEdsdwlUlUAFhS/QOS6i01rGdGQxxbkRPT/wASxJmeaSGOVVv3dknKNmphl7VINUlUAPCyXf8bOadh42aREI0rYsVPG0sAQNWIvP2ZZm2sFuJ0l09YV8BEBQA5b2rW0NfepJzxvOjoefP6//TEptF91iIAUC3GNh97VdKUpYZ1GSBEf5fIKVH7ABITAPoKhzZKMp2bX2dcI/JeGpsyB4BntWdPyVoEAKrGnj0lOZk2No8GuFzN2hXQSxsHC6/ecE+DapOYAJBxsXlqZqTHNv0f4vpK52xrZQBQlbzt2TZftF+vHuKOF7nktAVOTACQs53/D3FrVIidqpm4RAAAkDglH33LWsN6wirELa/e+K6pJokIAFsKR7Lyfpelxkh3q/ne6GP28/9vjBZ2nrAWAYBqc6qwdULyb1pqWDcCOtlPAzivB3Z8fZ/ptFm1SEQAmHNL90gync+0Hv8rlkqauGhs/yvP7n8AyeWd6Rl3cvqyFpdtW6SsnV4ltZ4/m7nDWqQaJCIAeAVY/zce/xudnFNs3KHifMT0P4DEsu5xir3X2NScaQwjXXnjXK+kOBldARMRACTbH6OnpUGtjVnTCI7bb/8rziv7fWsRAKhWC03RdyUtWmpY91q15OrVm2801XAuGf0Aaj4A3PSVAz2S22qpEWBKyL7+7/TC+cIWW7QFgCp29ne3Xpb8i5YaAe5aMe8D8PI7+wtHTLfOVoOaDwDZZf+wjP+Otcbp/4tXipqeN4VaydP+F0AKGJcBpuYXzc9ba88XSZnIFXdbi1RazQcAeduRjLoo0lCn7X6Ho+ftx/8i4+YYAKgFTpH5WWedcR3sbFE2Y3z9+drfB1DbAcB7J+kBS4nBjmbVGz8IAc7/nx17bNthaxEAqHbjj249JOmMpYZ1z1UmchowfvGT0yO2ApVX0wFg+PFDWyWtttQY6bFNBYXYlSrvnpFz1juEAKD6Oecl/5ylxOjkrPnUlfXot6T+oSf232ItUkk1HQBi5807Ma0fghDnUuU86/8A0sO4D6BYis19V0Js/vZeNX0aoKYDgIw3M7Xk6tXTYjsOYu1MJcm7uvhZaxEAqBVRvPwdyXZzunUfQHez/fi3N+5Bq7SaDQCr/uRws7zusdRY121vCGHtTe2l18b/xc53jMMAgJoxVrjjjJNet9QIcfeKtQGck3b1f+1F27fICqrZANAwH++SlLPUsF4NOb9kv53KsfsfQAp5Y+vzELevBlgGaIxmGkxfRCupZgOANx7BcM6e/o4HuJ+a9X8AqWS8Hth7acy4BDvSnTdfAidXu8cBazYAyLgB8Ka8/VrIY/bz//PZjvwL1iIAUGuynfkfSDLt5LN2BQxxDbxX7e4DqMkA0Fc43C+5my01AhwBMW8A9NL3jn5pg7GFIADUnqNf2rDonH5gqXFscsa2k1D2d4GTbh368j7TcfRKqckAkHHxF6w1rOv/52YXNLOwZKrhmP4HkGKxtz0DZxeXNDm3YBqD9V0gyflS9KC1SCXUZACQbNP/2Uyk/vZm0whC7EB1TmwABJBaITZBW09i9XU0qaEuYxtEjbYFrr0A8NRTGUn3WUoMd+WViWwbP0bt1/9OjD+646fWIgBQq04Utv9E0klLDes+gEhOw+YlYfewCr7m3qc1N+ChN9bfIcl0DaN1zWc5jjU+ZetC5cW3fwDwXs9Yfn58ak7LcWwag/VEmKTuIe3fZi2y0mouAHhvb/9rXfMJ8YFj/R8AZD4KHeIL2foQbYGjqOaWAWouAMh45KK9MavOJlP/IPOUk6RSqW7ZdBkGACSBy9Z/R5LpQhXrkmxbY1Zdzbb3glft3QtQUwFguHCwXdLtlhrrjbf/SfZNJ5L2n/qDOy+YBwIANe7E7986LemApUaYtsC2d4PzuruncMR4x/DKqqkAEMs/IMnUvWet8Y8c4tgJ6/8A8D95b3smhjiWHaA3TLZRC7usRVZSTQUAa8vFyDmt7bIFtBCNJ5yPWf8HgPdE9j1R1sZsQwFOh8nVVlfA2goAcg9Yfrq/vVk543nP0fPW9X8/27NaLxuLAEBinIxnfiTpkqWGdRkgRH8YV2P7AGomAAwX9m2StNZSwzrF4700NmULAM7puf1f3GmbqwKAJCnctyzpu5YSowEuZ7OeEPPSxsHCqyO2UaycmgkAsctU/PhfiOsnY+MNWACQRN7Zno3zRfv17OsD3BEjVzttgWsmAFjX/5vq67S61XbrU4idpopY/weAn+NKFW8LvKrVfkusr6F9ALZ/6QrZUjiSnfWLn7PUWNudlzPu7zhmP/8vF0dHBx83nXgBgOSx9VaTdHUj4L3rbrrhn3eSRrrz+vHp6Ruv4fXAjq/vq6+Fpd6amAGYdYv3SjJt3x8xTu0USyVNXLR1mwIAlM/J6ctaXDb1FNI6e1fA1vNnM3dYi6yEmggA8vYplbXGXs/HL8wptu4wAQCUTey9xqfmTDVGuvIyThZLcW3cDlgTAcA7W///npYGtTVkTWMIsv4PACgr6z6Ally9evONphreiQAQwtovv77KSbdaagSY0gmy/g8AKK8Ad7WYl4yddHt/4Yjp1tqVUPUBoLS89JBkm5Gx/jEvXilqen7RVAMAUH5T84vm5/U6Y8t4SZnIFXdbi5Rb1QcAyTb9XxdFGuywtf89ep7pfwCoFdYZ28HOFmUzxtejr/59ANUdALx3kjOlqKHOZtUb/5Cs/wNA7ThuvB44EzkNdBov9nN6xFag/Ko6AAw9cXibpBs/1Cn7FY+x9xoz7ioFAKyc0clZ86mtALcD9g89sf8Wa5FyquoA4BVXvP1viHOlAICVUyzF5r4tITaP+ziq6mWAqg4A1jWUfK5ePfkG0xCsV0wCAFaedR9Ad3ODWhttx8e9cQ9buVVtAFj1J4ebJXe3pca67lZzQwfrmVIAwMoLsXdrnbGBnJM+v/7Jt3PmgZRJ1QaA3OXl+ySZ/sON9Nj+ePNL9tulAAArL8TtrdYlZElNxenZz1qLlEvVBgAZb1RyThrutLb/td8vDQBYed5LY8Yl3JHuvCLzPHL1LgNUbQBwkuk/2urWJjUbr3U8xvl/AKhZ1q6ADXUZrW6zXSPvVb3XA1dlABguHBz20kZLjQBTN2wABIAadmxyRtZJXOtxQCfdOvTlfauNwygL21fkMold/LCx+6/5j3ZudkEzC7brnJ38b40/tuPfm4oAQEoN/eH+3/Le/bsb/fnZxSVNzi2op+XGT4ONdLfq+8fO3PDPS3K+FD0o6c8tRcqhKmcAvHH9P5uJ1N/ebBpDiB2kJa+nzUUAIKVKLjI/Q60nufo6mtRQl7ENokrbAldfAHjqqYzzus9SYqQ7r8jZZhBGja0kJY1NFHYctRYBgLSaePS2tyU3aqlh3QcQyWnY3BXQPayCr7r3bdUNaPCNDXdJ6rDUWGts/7scxxqfsnWRkte3bQUAAJJ/xvLT41NzWo5j0whGjP0AJHUPaf82a5HQqi4AKLZPlVjX/0N8YJzz3zEVAADIyZuWAUJ8oVsfoi1wVH1tgasuADjnTMf/Opty6miyNV6yThlJWs7k/PPWIgCQdvV+6TlJph3Z1iXdtsasupqNDf2qcB9AVQWAwX/9WoeX32mpMWK/wSnA+r97afT3dl4yDwQAUu5o4a4ZSa9Yaoyetx/ptt4sK7l7egpHjHcMh1VVAUDF0gOSTNstrTc4zS4u6fzsgqmGE9P/ABCMk+mZem7uivlYd4DrgbONWthlLRJSVQUA681JkXMa6rQFrBCNI0refnQFAHBVrNj8TLU2dhvqyisTGdsCG4+4h1ZVAUDSg5YfHuhoVs54XjPAVNH0xOa39luLAACumtg0uk/SBUsNa2+XEP1lrC3uQ6uaADD0xP5bnDRoqWFt/+u9NDZlDADePaM9e0q2IgCAn9mzpyTvnrOUGA1wuZv5HSNtHHri8FrbKMKpmgDgvT0ZWc9qhrg+0kW2IysAgJ9nPVo9X7Rf774+wCZz75dNM90hVVEAsK2NNGXrtLrVdmtTiPa/S9GyqWkFAODnLftMxdsCr2ptUpPxllkv21H3kKoiAKx/8u2ckz5nqTHSlZex+6+O2c///+T0v7zjpLUIAOBvO1XYOiHpp5Ya1o2ATvaj5s7rgR1f31dvKhJIVQSA4tTsvZJMuyusazPFUkkTF23dopwc0/8AUC7e9ow9OX1Zi8u2LVrWo+aSWiffydxuLRJCVQQAOVuHpBCp7PiFOcXGHSIlH3P+HwDKxLoPIPZe41NzpjGMdOWNl9Xbj7yHUhUBwBnXRHpaGpXP2WZUAqz/L8Ty37cWAQB8uFJ+4buSrlhqWPcBtOTq1ZtvNNXwTlXRD6DiAWC48MpNXvq0pUaADk0hHvoi9QAAGsJJREFU1v9/cLqw07bFFADwkSZ+5+4rcvqhpUaAu17s+wCk2/sLRzrNAzGqeACIXf3Dkm1GZaTHtiZz8UpR0/OLphrOOab/AaDMnLc9a6fmF83P+3XmewGUiVxxt7WIVcUDgDfekFQXRRrssHVnOnrefvyvFLP+DwDlVvL2tsDWGd/BzhZlM8bXZxXcDljZAFDwkXN6wFJiuKtFdZHtnxFg/f/MxGPbX7cWAQB8vHefte9Yahw33viaiZwGjPfOyOkRWwG7igaAwejAbZJ6LTXWGrv/xd5rzLgrVNLTcs56hxAA4JM45+Vlarg2OjlrPvUVYO9Z/9AT+2+xFrGo7AyAj8xTINYzmSHOhbL+DwArx/rMLZZic9+XAP0A5GP7O9CiogHAGc9C5nP16mlpMI3B2hlKUlwXR89aiwAArs2SLz0tKbbUsO4D6G5uUGtj1lTD2gPHqmIBYNWfHG720l2WGiESmPVMqKSDxwpbz5kHAgC4JqcLOyclHbLUCHH3yzrjErS8dq1/8u2ceSA3qGIBIDe/fL8k0z98XY/tP/78kv12KElM/wPAyjOdBghx+6u1Bb2kpuL07GetRW5UxQKAV2Sa/ndOGu60tv+13w8dO9uHEABw/SJjPwDvpTHjEvBId16RtTGw8SZci4oFACfb2seaNvu1jKPnzev/lxva8y9ZiwAArk+zsi9KMh3hsnYFbKjLaHWb7Rp67yp3L0BFAsBw4eCwpA2WGgGmXkJsAHz+6Jc22FpKAQCu25HClqKc+66lxrHJGVnPb1uPAzrp1qEv71ttHMYNqUgAKEXe3ADBuvni3OyCLi0UTTWsN1MBAG6ck60r4OzikibnFkxjCPBl1PlS9KC1yI2ozBKAcc0jV5dRX7ut/W+IHaAlF7H+DwAVshxnzF/CrCfB+jqa1FCXsQ2iQm2BVz4AFPbWOfn7LSWGu/KKnG3jxaixFaSksYlHb3vbWgQAcGNOFba9JblRSw3rPoBITsPmroDuYRX8ir+PV/wXDip/l6Q2Sw3rmstyHGt8ytYFSl7fthUAANh5U1vg8ak5LcemnkIasfYDkLqHosNbrUWu14oHAO/srQ+t/7FD/MFZ/weAynPe9iwO8YVwfYi2wIpX/DTAigcAJ5n+kZ1NOXU02RonWad8JC1ncv55axEAgE29lp6VtGSpYV0SbmvMqqvZ2NCvAvsAVjQADP7r1zok7bDUCNH+N8D6/8ujv7fzknkgAACTo4W7ZiS9YqkRoCeMRrqs7yZ3T0/hiPGO4euzogHAF5cekmTaLjliXP+fXVzS+VnbsQ9nbEEJAAjI2Vqyn5u7opkF0yRCiOuBs41a2GUtcj1WdgnAePwvck5DnbaAFKLxQ8nFrP8DQJWIYvueLGtjuKGuvDKRsS2wW9m2wCsaAJyTqdnBQEezcsbzlgGmeqYnNo3usxYBAIQxtvnYq5KmLDWsvWGymUj9xv401j1y12vFAsDgHx7aImnAUsPaccl7aWzKGAC8e0Z79pRsRQAAwVx9Jj9nKTEa4HI46x41L20ceuLwWtsorp3tNp3r4H3pIWe8NWm9cY0lxPWPcn7P4OMH9tiKAACqyXzx6vXwawyX+6zrzuv5t2zj8H75QUl/aqtybVZsBsDJmaY2mrJ1WpW33boUov0vACCZrG2BV7Xab6n1xnfl9ViRADBc2Nsg6V5LjZGuvIzdf3XMfv4fAJBQ1o2ATvaTas7rgR1f31dvKnKNViQAxK79Xkmmr+/remxrK8VSSRMXje1/AQCJdXL6shaXbVu8AvSqaZ18J3O7tci1WJEA4OVNUxpO9va/xy/MKbbu8AAAJFbsvcan5kw1Rrryxt1uknfxihwHXJEA4CTTP6Y336iWnG1GhPV/AMAnse4DaMnVqzffaKqxUvsAyh4Ahguv3CTpU5Ya1jUV6eoJAAAAPs47l66Ya5j3AUi39xeOdJoH8gnKHgBKUf0jkm1GZJ25x7J0YW7RXAMAkGzT8/Z3RYB9AJnIFXebB/IJyh4AIuMNR3VRpIFOW3clSfYWjQCAxIsCvCsGO1qUzRhfrytwO2B5A0DBR14ypZihrhbVRfZh5huy5hoAgGTLG/ebSVe/cA4Y762R0yPmgXyCsgaAAR3cLqnXUiPADUuS7F0EAQDJZz1y/rM69ndO/3Bh36YQY/ko5Z0BcLbjf1KQtRRJ0q19XSwDAAA+UiZy2toXZu9diHdX7DJlPQ1Q1gDgZLvasLWhXt3NDUHG0tWc051DpskIAECC3THUo86mXJBa3c0Nam00Lj278u4DKFsAuPmrL+QlfcZSI9S3//fcd/Nqbb6pPWhNAEDt27SqTfdvXBO05jpjAzt57Vr/5NthEsmHKFsAmF9ovl+SaTeF9frfD4rk9Eu3DuvutasUWS8WAADUvMg53TOySr+ydW3w90KAd1hTcXr2syHG8mHKdh1w5OOHvOE/ZiSntdb09CEykdPum9doW1+nDp2e0rHzM7q0UNTCkq3/MwCgNjTUZ9TWkNW6nlZtW9OprpYwS80fNNKdVySnWIY29N49JOm5YIN6n7IFAO9srQxXtzepsT4Tajg/p6ulQbs3rtHuwFM+AABIUkNdRqvbm3TKcBGdv7qZ/p+HG9X/VJYlgKEnDq+VtM5Sw7x2AgBAhVnfZU66dejL+1YHGs7fUpYAEMclcwOD0BsAAQBYaQH2ATi/HD0QYiwfVJYA4CTT9H+uLqM17U2hhgMAQEX0dTSpoc66nG3vqfNhwgeAwt46SbssJdZ259mlDwCoeZGchs1dAd3DKvjg7+vgBQei1s9IarPUCNX+FwCAShux72nrHooObw0xlvcLnyh8ZJ6qGAlw/S8AANVgfYA9bV5x8GWA4AHAy9a6sKs5p3Zr+0QAAKpEW2NWXc3Ghn5luB44aADo+8rLXZJ2WGqE7v4HAECl2d9t7p6ewhHjHcN/W9AAEC3XP2ityfl/AEDSBHi3ZRu1sCvAUH4mbADwttv/MpHTEAEAAJAwQ115+5X0zvaO/aCgAcDLm5oVDLQ3K5sp6w3FAACsuGwmUn97s7FK2H0Awd62A4XDn5I0YKnB+j8AIKnsHW7dze+22g8iWACIXMl8RIH2vwCApArR48b75QcDDEVSwADgnW1qojlbp1X5xlDDAQCgqqxqbVJT1ngJr3Gv3fsFCQDDhb0N8u5eS42R7lbR/RcAkFRO0oh9FmD3uy33zYIUKbnWzzvJ9PX99dNTev30VIjhAACQVO1Dar9jXHrRWijIDID1+B8AALg23sVB3rlBAoB3tut/AQDAtfFyQd655lX3/j861BeV4pMhagEAgE9Uin2ud6KwxbRubp4BcKXSQ+LlDwDASslEWrzfWsQcAFj/BwBgxZmXAcwBwDt92loDAABcB6dt1hIhNgGa2v8CAIDrts5aIEQAoH8vAAArq8NagKv3AABIIQIAAAApRAAAACCFCAAAAKQQAQAAgBQiAAAAkEIEAAAAUqiu0gN49JHbKj0EAABW3BPfPljR388MAAAAKUQAAAAghQgAAACkEAEAAIAUIgAAAJBCBAAAAFKIAAAAQAoRAAAASCECAAAAKUQAAAAghQgAAACkEAEAAIAUIgAAAJBCBAAAAFKIAAAAQAoRAAAASCECAAAAKUQAAAAghQgAAACkEAEAAIAUIgAAAJBCBAAAAFKIAAAAQAoRAAAASCECAAAAKUQAAAAghQgAAACkEAEAAIAUIgAAAJBCBAAAAFKIAAAAQArVVXoAwEpbKsU6Njmr4xdmdGb2iqYuL6q4HGs5jis9NKyAuihSQ31GnU05rWpt1PruVg13tagu4vsQ0oUAgNS4tFDUS8fP6dDEBRVLvOzTajmONbcYa25xSSem5/Tq+Hk11GW0fbBbdw71qCVXX+khAiuCAIDEi73XC6Nn9eLoWS3x4seHWFgu6cXRs9p/YlKfW3+T7hzqlXOVHhVQXgQAJNrMwpK+efi4JqYvV3ooqAGLyyU988YpHTs/o1/eOqymLI9IJBeLXkisS1eK+vNX3ublj+s2emFWf/byW5pdXKr0UICyIQAgkS4Xl/Vnr7yt6fnFSg8FNerC5UX9xatHtbBUqvRQgLIgACBxYnl94+BxzVwpVnooqHEX5hb0X14bk6/0QIAyIAAgcV4eO6+T03OVHgYS4uj5GR0+daHSwwCCIwAgUeaLy/r+2+9UehhImOfePM3RUSQOAQCJ8vLYOR7UCG6+uKz9JycrPQwgKAIAEiP2XgcmmKpFeew/QQBAshAAkBhjU3OaLy5XehhIqOn5RZ2ZuVLpYQDBEACQGCem2PiH8hqbmq30EIBgCABIjNMz85UeAhLunUt8xpAcBAAkBuf+UW4zC3QGRHIQAJAYrP+j3K4s8RlDcnDTBRIjsl/f9sCJx7Y/F2IsqE4DhUMPORc/faM/H+AzBlQNZgCQGLm6jLXE/xpiHKhezpV+zfLz9RkemUgOPs1IjI6mrLXEr6qwl1mxpCrsrXNyv2Qp0dmUCzUaoOIIAEiMVflGa4nuQbXtCjAUVKFB136fl3osNQJ8xoCqQQBAYqztbg1QxbEMkFTe77GWWNuVDzESoCoQAJAYA+3NajDuA3DO/zLLAAlU2FsnJ9P0f2tDvXpbmQFAchAAkBiZyGnTqnZTDS/1sAyQPAPquF9St6XG5ps6xBkAJAkBAImy+SZbALiKZYCkcYrNf9Nbgny2gOpBAECirO3Oq6neOIPv/K+wDJAghb11zukXLSXyuXr1tTeHGhFQFQgASJTIOW1c1WYtw2mABBlQx/3W3f+33NTO9D8ShwCAxGEZAO8XYvp/800dIYYCVBUCABJnbVdezVmWAaAg0/8tuXr1M/2PBCIAIHFYBsB7Qkz/b76pXVwBgCQiACCRwkzZsgxQ68JM/7P7H8lEAEAiDXe1qIllgHQLNv3fEmpEQFUhACCRIjlt6jV/c2MZoIYF2/3P9D8SigCAxOI0QLox/Q98PAIAEmuom2WA1Ao1/d/B7n8kFwEAiRXJ6Rbj3QBiGaAmBZn+X9WuiPY/SDACABKNZYB0ovc/8MkIAEi0oc68WnL1tiIsA9SWQNP/A51M/yPZCABINOekTTQFSpUQ0/+bmP5HChAAkHg0BUoXdv8D14YAgMQb7GhRnmWAdAgw/d+crWP6H6lAAEDiXV0GCHAawLXfF2I8KJ9QzX+Y/kcaEACQCmF2dNunllFeXP0LXDsCAFJhsKPFfhpA7pe3FI5kgwwIwa1/8u2cnH7JUqOJ6X+kCAEAqeBckFmA7lm3+PdDjAfhFS/O/n1J3ZYaNP9BmhAAkBqBdnZ/ZeTf7DOfK0RYw4WD7fL6irUOzX+QJgQApMZAe4DTAFL/8mL0jeHC3oYQY4Jd/9debIyd/ytJfZY6zdk6DXVy9S/SgwCA1Ai0DCBJD3rX/t3+Jw5uCFEMN66vcGhjNNvwXUm7rbVu7m1XxN2/SBHONSNVttzUoVfGz5vrePk7o1ivDz5+4P9zct+I6ur2HV/61HkVXBxgmPgoBR8N69Ve7+p3eO/3yMW/LinIxszNq5n+R7oQAJAq/R3N6mrO6cLlxRDlcpJ+08v/Zml5SYPuoPT4gRB18ZEOKladJK+Qe/VaG+o11MX0P9KFJQCkzra+rkoPAVVme383u/+ROgQApM6OwW411GcqPQxUiWwm0o5B0+lBoCYRAJA6ubqM7hlZVelhoEp8ZmSVmrKshiJ9CABIpbuGe7WqtbHSw0CFdTXndPfa3koPA6gIAgBSKXJOf2fzoDj1lV5O0i9sHlBdxGMQ6cQnH6nV196ke9ayFJBWdw73argrX+lhABVDAECq7dq4Rp9aw+1vabOht027N62p9DCAiiIAINWcpL/3qUENdHADXFqsaWvSr2wd5tgfUo8AgNSriyL9+vZ1WtvNdHDSDXW26Dd2rlc2w6MP4P8CQFJDfUa/sWOddg72VHooKJNtfV36BzvXq5EeEIAkWgEDPxM5py9s7ldPS4Oee/OUiiXa+idBNhNp18bVunOI437A+xEAgA/YOditTava9Nybp/Xa6alKDwcGG3rb9IVb+tXWGOS+ICBRCADAh2jJ1esXbx3SrWs69aOxsxqdnJWv9KBwTZyk4a68PrO2V+u6Wys9HKBqEQCAj7G2O6+13XlduLyoAycn9eN3pjW3uFTpYeFDNGfrtGV1h3YOdKurpaHSwwGqHgEAuAZdzTk9uKlPD27q04XLizo5PafxqTldmF/UpStFFZdL7BlYIdlMpGxdRm0NWXU15zTY0aLBjmZe+sB1IgAA16mrOaeu5py29XOtMIDaxTFAAABSiAAAAEAKEQAAAEghAgAAAClEAAAAIIUIAAAApBABAACAFCIAAACQQgQAAABSiAAAAEAKEQAAAEghAgAAAClEAAAAIIUIAAAApBABAACAFCIAAACQQgQAAABSiAAAAEAKEQAAAEghAgAAAClEAAAAIIUIAAAApBABAACAFCIAAACQQgQAAABSiAAAAEAKEQAAAEghAgAAAClEAAAAIIUIAAAApBABAACAFCIAAACQQgQAAABSiAAAAEAKEQAAAEghAgAAAClEAAAAIIUIAAAApBABAACAFCIAAACQQgQAAABSiAAAAEAKEQAAAEghAgAAAClEAAAAIIUIAAAApBABAACAFCIAAACQQgQAAABSiAAAAEAKEQAAAEghAgAAAClEAAAAIIUIAAAApBABAACAFCIAAACQQgQAAABSiAAAAEAKEQAAAEghAgAAAClEAAAAIIUIAAAApBABAACAFCIAAACQQgQAAABSiAAAAEAKEQAAAEghAgAAAClEAAAAIIUIAAAApBABAACAFCIAAACQQgQAAABSiAAAAEAKEQAAAEghAgAAAClEAAAAIIUIAAAApBABAACAFCIAAACQQgQAAABSiAAAAEAKEQAAAEghAgAAAClEAAAAIIUIAAAApBABAACAFCIAAACQQgQAAABSiAAAAEAKEQAAAEghAgAAAClEAAAAIIUIAAAApBABAACAFAoRAIqWHy7FPsAQAACoHQHefYvWAiECwJzlh4ulOMAQAACoHYvLJdPPO2nGOoYQAcA0iIWl5QBDAACgdiwYA4CXm7WOIUAA8KYZgKl50woCAAA1Z/qydQbfV8MMgHvH8tMXLi/YhwAAQA2ZnLe9+5zTGesYzAHAy71l+flTFy9bhwAAQE2ZmJ43/bz3/k3rGMwBwMk2iOMXZsU5AABAWnhJ41O2JXwvV/kAILk3LD99ubisdy7ZkhAAALXi9MXLuly0bYCPqmEGYNmXDkoyneV77fSUdRgAANSE105PW0vEJTUcshYxB4DThZ2TXnrdUuPI6Wn6AQAAEq9YivWTd8wB4OBEYYv5m3OQVsCR3POWn59fWtbBickQQwEAoGodODGpeWv/G++eCzGWIAHA+9gUACTpR6PnmAUAACRWsVTSj8bOmevEivcGGE6oGYCZZyVdtNSYXVzSD46ZjzUCAFCVvnf0jOYWl6xlphs6W6snAIwV7luQ/DesdV46fk5nZq6EGBIAAFXjzMy8Xhk7by/k9ZdHv7TBfBGQFPA6YO/0F9Yasff65qHj5ksSAACoFsVSrP98eEyxt3e9cZH+PMCQJAUMACcf3f6CpLetdabmF/XfXj+hmPZAAIAaF8vrvxwe0wVz739J8m+OP3rbSwEKSQoYAOScl9yfhCj15tmL+taPJ0KUAgCgIrykv/nxSb117lKQes65P776rg0jXACQ1HNT6c+8dCJErQMTk/rr18eDTJkAALCSYnl968hJHZy4EKSel060xLn/N0ixdwUNAPu/uHPJOf3bUPUOn5rSNw8dV7HEngAAQG1YXC7pGweOa//JgP1tnPvqkcKWYriCgQOAJEXxpT+VdDRUvTfOXtL/88M3OR0AAKh6Z2bm9R9efDPYtP9V/s1ce8t/DFhQkuRCF5SkgcKhh5yLnw5ZM3JOOwe7dd/G1cpmMiFLAwBgslSK9eLxs/rh6FmV4rBL17H3X5go7Ph20KIqUwCQpMHHD/yVpF8NXbclV6/PrO3V9oFuZTPBJzAAALhmxVKsAycn9aPj50I0+fkwf3nise2/Xo7CdeUoKkkln/ntjCvtktQVsu7c4pKeeeOUfnjsrLas7tCn+zq0pq25fEkGAID38bp6pe9rp6d15J0pXVkq2z61Se/1O+UqXtb35mBh/9+Vc39d7t/TlK3T2q68+tqb1NXUoI6mnJqydcpmImUiogEA4PqVYq9iKdZ8cVnT84u6ML+gUxfndfzCrOaLxgt9Ppl30t8Zf2z7t8r1C8r+dhx4/MD/6aT/o9y/BwCAxPD6NycK23+/nL+i7IvovTfFv++k75X79wAAkAhOz5/QpUfL/WvKHgD2f3HnUr0v/i+SP1ju3wUAQI17PYrdr6pwX9nXGFZsgXxd4XDvkiu9IGnDSv1OAABqhxuN/NI9Y4U7zqzEb1uxc3THClvP+Sj+gqTjK/U7AQCoDW5UfvnBlXr5SysYACTp5KM7j0V++W5Jh1by9wIAUL38j+OM+9yJwu2jK/lbV7yTzljhjjN1uXgXGwMBAKnn9HzWL90z8S+3nVrpX12RVnqjv7fz0ri/9IDkH5cUV2IMAABUkJfXkz2r4keOFu6aqcQAKt4l591mQX+mwB0DAQCoUpPOu98cL9z2N5UcRMWb6Z8o7PjvcSbaKqe/qvRYAAAos7/0Xlsr/fKXqmAG4P2GHj90n1f87yXdUumxAAAQ0NHY+39Sjlv9blRVBQBJWv/k27ml6Zl/HMv9MycNVno8AAAYjHvn/rg1zv6HI4UtxUoP5v2qLgC8Z0vhSHbOLf5DSf/MSxsrPR4AAK6df9M598fdq+K/2P/FnWW5J9iqagPA+w3+4f4dit0/ktNvSOqu9HgAAPgQFyX9//L68xOP3facnPOVHtDHqYkA8J6rywOz98fe3++cu1/SNlXBRkYAQCrFkg5K/vnY6/mGzta9R7+0YbHSg7pWNRUAPqi/cKQzcou3eWmj89okp5sl3ytFbZJvk5SXlK30OAEANakoaVZyl6T4kuTOSf4NL/emk96Kfe7gRGHLVKUHCQAAAAAAAAAAAAAAAAAAAAAAAAAAAAAAAAAAAAAAAAAAAAAAAAAAAAAAAAAAAAAAwvkf2VNRKRQQYMQAAAAASUVORK5CYII=;" vertex="1" parent="1">
          <mxGeometry x="400" y="364" width="54" height="54" as="geometry" />
        </mxCell>
        <mxCell id="dtRiRAH2Uqq6aqAW33ka-10" value="" style="shape=image;verticalLabelPosition=bottom;labelBackgroundColor=default;verticalAlign=top;aspect=fixed;imageAspect=0;image=data:image/png,iVBORw0KGgoAAAANSUhEUgAAAgAAAAIACAYAAAD0eNT6AAAAGXRFWHRTb2Z0d2FyZQBBZG9iZSBJbWFnZVJlYWR5ccllPAAAAyhpVFh0WE1MOmNvbS5hZG9iZS54bXAAAAAAADw/eHBhY2tldCBiZWdpbj0i77u/IiBpZD0iVzVNME1wQ2VoaUh6cmVTek5UY3prYzlkIj8+IDx4OnhtcG1ldGEgeG1sbnM6eD0iYWRvYmU6bnM6bWV0YS8iIHg6eG1wdGs9IkFkb2JlIFhNUCBDb3JlIDUuNi1jMTExIDc5LjE1ODMyNSwgMjAxNS8wOS8xMC0wMToxMDoyMCAgICAgICAgIj4gPHJkZjpSREYgeG1sbnM6cmRmPSJodHRwOi8vd3d3LnczLm9yZy8xOTk5LzAyLzIyLXJkZi1zeW50YXgtbnMjIj4gPHJkZjpEZXNjcmlwdGlvbiByZGY6YWJvdXQ9IiIgeG1sbnM6eG1wPSJodHRwOi8vbnMuYWRvYmUuY29tL3hhcC8xLjAvIiB4bWxuczp4bXBNTT0iaHR0cDovL25zLmFkb2JlLmNvbS94YXAvMS4wL21tLyIgeG1sbnM6c3RSZWY9Imh0dHA6Ly9ucy5hZG9iZS5jb20veGFwLzEuMC9zVHlwZS9SZXNvdXJjZVJlZiMiIHhtcDpDcmVhdG9yVG9vbD0iQWRvYmUgUGhvdG9zaG9wIENDIDIwMTUgKE1hY2ludG9zaCkiIHhtcE1NOkluc3RhbmNlSUQ9InhtcC5paWQ6Q0ExNUQ3RkQ5QTRDMTFFNkI3QTVBNUM4NjYyNkU4NTQiIHhtcE1NOkRvY3VtZW50SUQ9InhtcC5kaWQ6Q0ExNUQ3RkU5QTRDMTFFNkI3QTVBNUM4NjYyNkU4NTQiPiA8eG1wTU06RGVyaXZlZEZyb20gc3RSZWY6aW5zdGFuY2VJRD0ieG1wLmlpZDpDQTE1RDdGQjlBNEMxMUU2QjdBNUE1Qzg2NjI2RTg1NCIgc3RSZWY6ZG9jdW1lbnRJRD0ieG1wLmRpZDpDQTE1RDdGQzlBNEMxMUU2QjdBNUE1Qzg2NjI2RTg1NCIvPiA8L3JkZjpEZXNjcmlwdGlvbj4gPC9yZGY6UkRGPiA8L3g6eG1wbWV0YT4gPD94cGFja2V0IGVuZD0iciI/PuTO0+EAAB5ASURBVHja7N0LcF13fSfwc9+60rWefr8jhyTGMUkGCBTCFsKr426XQmHbxCosxWUDw27pwHZISqGwLZuFsGRKZza0AVrWhU4ZxzTTZmhnmZB1ePVNHJMQYk8ICSEhL8ey9bqP/R9Zoia1FUmRpavz/3yYX64sy1jn9/fV/3v+55VrtVoJABCXnAAAAAIAACAAAAACAAAgAAAAAgAAIAAAAAIAACAAAAACAAAgAAAAAgAAIAAAAAIAACAAAAACAAAgAAAAAgAACAAAgAAAAAgAAIAAAAAIAACAAAAACAAAgAAAAAgAAIAAAAAIAACAAAAACAAAgAAAAAgAAIAAAAAIAAAgAAAAAgAAIAAAAAIAACAAAAACAAAgAAAAAgAAIAAAAAIAACAAAAACAAAgAAAAAgAAIAAAAAIAACAAAIAAAAAIAACAAAAACAAAgAAAAAgAAIAAAAAIAACAAAAACAAAgAAAAAgAAIAAAAAIAACAAAAACAAAgAAAAAKALgCAAAAACAAAgAAAAAgAAIAAAAAIAACAAAAACAAAgAAAAAgAAIAAAAAIAACAAAAACAAAgAAAAAgAACAACAAAIAAAAAIAACAAAAACAAAgAAAAAgAAIAAAAAIAACAAAAACAAAgAAAAAgAAIAAAAAIAACAAAAACAAAgAACAAAAACAAAgAAAAAgAAIAAAAAIAACAAAAACAAAgAAAAAgAAIAAAAAIAACAAAAACAAAgAAAAAgAAIAAAAACAAAgAAAAAgAAIAAAAAIAACAAAAACAAAgAAAAAgAAIAAAAAIAACAAAAACAAAgAAAAAgAAIAAAAAIAAAgAAIAAAAAIAACAAAAACAAAgAAAAAgAAIAAAAAIAACAAAAACAAAgAAAAAgAAIAAAAAIAADAMwSAXC6nE2fJLUf2FMLLhlBbQw2G2hxqTaj+UAOnVE86HqE6QlV0DmD5yueKSblQfbRc7HysUqwdDx9PFPLlfCFfKhVyxUoul++arCQpT03HK075441Qw6EeCnVPqLtC3R7qwLba0NGF+P4m534BYEEn+nNDPW+qdk5VOuEXdQggmxN9tdT9o2qp55FquadeKXTVCvni2jChd5+Fv64Z6rZQnwu1L4SBYwLA0kz4veHlZ0JdFuoloV4UqqozAFmVSyrFzrFaeeD7XZWBsbBnvzKfK6xbom8mXQm4IdR1IQg8KgCc3Qm/PDXZ7wr1mlAXJieX7AHIqFKhI1lRWfWD7o41J8rFrg25JFdrs2/xeKgPhbo+BIEJAWDhJv302PwvTU36rwxV0xWAbKuWeuq91fX3d5X7Owr50vpl8m0fCnVFCAEHBYD5T/rpyXmvD/WmqUnf8XuAzE/63a2e6voHw95+Vz5X6FummzEa6l0hBHxaAJj9pJ+ewPfaUG8P9fMmfYDsK+YrSdjTf6qvc0Mznyv2ZmjTrg11TQgCLQHgzBP/lvDy1lBvC7XR2wEg23Lhf12V/qS/c/OPq6WelUl2z+VKTxB855lCQDr3R7mnGyb+F4eX94R6Q6i8twRAtuVzhXRvvxkm/pFCvtQVPrUq45t8VagnQ119xjAUywpAmPTTif4/hHpvqJd6OwBkX7rM39e5sd5X3dDM5fLlCFuw53TnBERxCCBM/OnG/XKoD4Ta7u0AEMfEP9C1pdlbTS/Tz8W80pueGHjp068OyHQAmJr4Xxfqg6Eu9nYAiGHiL6fH95Pezg2NXJIr6Mik9BLBS069T0BmzwEIk396w57rQz3fuANkX3qMP534+zs3pUv96R6/yf9f7Qj17lAfO/WTmVoBCBN/et/9jyYnl/wBiEB3x9pkVW2wGfb+ndR9ZukdA7dO3zY4MysAYeJP78Gfnun435KTT9MDIOOqpe5kde05SUdp8kF6Jv+ZpVc+pCfBvy8zKwBh8r88vHwqOfkkPgAyLl3uX1kbTPqqGzRjbtIHCG1KnyK4rFcApp7G9/FQv2ZMASLZjS0PJGtXnJcUCxXNmLue5OTzbf5kMkgt08n/F8LL3SZ/gFj2+ovJuu7tycbenSb/Z+fN0x8sq0MAYeLvDC/XhXqHMQSIQ7XUMzn5p4/m5Vlrhuof7Np9dNkcAgiT/yXh5fOhLjB+ANmX3rd/oHZOMtC5KcnuLfsXXbry/7JQf7UsDgGEyf9d4eWbJn+AOKTL/Jv7LgmT/2aT/8K7bLLHbT7xp5f3pWf4/6rxAohDZ7k3Wd+9IynkS5pxdmxv6wAQJv/B8HJTqIuMFUAc+js3pTf1sdd/dp3XtgEgTP6vCC/7QvUZJ4Dsy+XyyboVFyQrOlZrxtm3ri0DQJj800sUbgxl7QcgAulS/4aeCyfP9mdR1NoqAEw9vS99ZO/vGhuAOJQL1WRD7/MmX1m8zNU2ASBM/uk38+lQbzEuAHHoKHUnG3t2Otlv8TXaIgCEyb8cXr4Q6g3GBCAOneW+ZEPPjsk7/LHohpc8AEzd2e+LoXYZD4A4dJX7J4/5pyf+sSQeWtIAMDX5/1WoVxgLgDjUKiuT9WHPP+cyv6V0T/qfJYlfJn8Akz9L5q4lCQBTx/y/aPIHiEd6zH9993NN/u3h9kUPAFNn+6cn/DnmDxCJ9Pr+9Gx/x/zbQvo0wAPpB4v2OOCp6/w/m7jUDyAalWIt2dx3sbP928et22pDl6dz/2LGsQ+Y/AHiUcxXko29O03+7eVz0x8sygrA1O19/1TfAeKQzxUmH+ebrgDQNo6G2rStNnRsUVYAph7sc6O+A8QiN3m2v8m/7dyQTv6LsgIw9Ujff0g81Q8gGqtr5yZ9nRs1or0cD7U1BIBH01+c1RWAMPmnT3a4yeQPEI/ujtUm//b0oenJf9rZPATwqVAX6TlAHCrFrmTNivM1ov0cCnX90z95Vg4BhL3/d4WXT+o5QBzSM/239j8/KXmsb7sZDXVp2Ps/eOonJ+f+hQ4AYfK/JLx8M1RZ3wHikJ70t6KySiPaz54w+X/66Z9c8AAwdY//fwx1gZ4DxKGnY22yttuP/TZ0bZj8rz7db5yNkwCvM/kDxCNd8l+94jka0X5uCHXNTF+wYCsAYe//F8LLzXoOEIf0wT7pzX46St2a0WZ7/unkH/b+W2f6ggU7BBAm/97wcneoNfoOEIf+zs3JqtqgRrSP9IS/d53umP/pAsBC3aD54yZ/gHiUC9VkZddWjWgf6aV+Vzz9bP+ZPOsVgLD3f3l4+YreA8RjU+/FSWe5VyOW3nCoD4e6Pkz+E7P9Q8/6EMDU3f7uCHWuMQCIQ091XbLWDX+WWvpgn/REv+uefoe/2QaAZ3sI4GqTP0A8CvlSsrq2TSOWRjPUbcnJR/ruO/XBPvMx7xWAsPe/Obx8N1SHMQGIw5oVz0l6qxs04uxqJCeX9h8KdU+ou0LdHupAmPSPLsRf8KxWAE4cGz7QmKib/AEiUa10Jz2r12vE/Pfevxfq4NTrfaHuD/XYVD0+9XWjYZIfXYxvaF4BYP+hoV8fHxndbDwB4rFp9c7Ja/+ZlXQSv22qvhbq78PEPtJO3+CcDwHccmRP7sRTx55q1Bs14wsQh57a2uQ5G1+sETN7It1HDrUv1K3tNuGfal6HAMZOjHzY5A8Qlw0rt2vCGebSUF8Old585+a5XIq3rFYA9h8aytfHJ4abjYbnPQJEonfFuuTcDS/SiJ92PNRnQ30iTPpHll1qmfMKQKv1UZM/QExyYe//udrw0xP/HybzvP5+Wa4A3Hz3WwpjI6Pp3r8z/wEi0d+9MRlc/wKNOLnU/8ehfidM/I8s+42ZywpAo17/gMkfIC5rBzzqN/hWqKvCxP8vWdqo/Gy/sD5Rf7d/AwDx6O5alXRWemJuwYlQ6dz3kqxN/qlZrQDsv3P3W8dHxzzwGSAia/qjvtP7P4baHSb+72Z1A2e1AtBoNH7XWwEgHpN3/euK9invnwz1M1me/Ge1AvClQ0OXjrnrH0Bce/99UT7wJ71736+HiX9vDBv7jAEg7P1f660AEI9Cvpj0d0f3wJ/0kr7Xhcn/67Fs8IyXAf7lXW8uhb3/kVazWfCWAIjDqt6tyZa1F8e0yfeFenWY/O+NZYOf8TLAsPd/tckfIC4re7fEtLmHQ708TP4PxDbOM54E2Gw03u6tABCP9LK/ro4+k3/MAeBL3xna2qg3Nng7AMRjoGdTLJv6YKhXxjr5zxgAmo3mB5NWy7sBICJ9K6LY73sq1K4w+X8/5rGeIQA0/r23AkA8uqr9SbmU+ee9NUP9xzD53xH7eJ82AOw/NHRuo95Y6e0AEI/+Fetj2MxrwuT/N0b7DAGg1Wz+jtYARBYAujdmfRP3h/qokZ4hADQbzddoDUA8Ojt6klIx0w98/WGoPWHv38ltZwoA+w8N1ZqNxhqtAYhHBPf9f0uY/B830jMEgFazdVWr1cppDYAAkBGfCZP//zXKzxQAWs1f1haAeBQKpaSrsz+rm/dIqPcY5VkEgGajuUNbAOLR3bkyySWZXfj97bD3/6RRfoYAsP/Ooa3NRqOqLQDxqFUze9X3v4T6jBGeRQBotZpv1RKAyAJAdpf/rw57/00jPKsA0Hq1lgBENAnkC0lnpTeLm/atMPl/2QjPNgA0m9u1BCAe6ZP/crlMHv//PaM7ywCw/9BQudlo9moJQEQBoJrJ5f/vhvprozvbFYBW65UtT/8DiEpnpTuLm/UH7vg3hwAQJv/XagdAXKqVnqxt0kioPzOycwsAL9QOgHjkcvmko1LL2mZ9Mez9HzW6cwkAzdagdgDEtPe/Ios3APqCkZ1zAGgOaAdATAEgc8f/nwj1FSM7hwBw08ErO5rNZkk7AOJRKXVlbZNu2VYbmjCyc1kByOUu1QqAuJRLnVnbJDf+mXMAaCXP1wqA2FYAMhcAPPJ3zgEgaXkCIIAVgOXs3m21oR8Z1TkGgFbLFQAA8QWATD389etGdD4rAK1klVYAxKNYKGftEsB/NqrzWwHo0QqAuAJAxnzbqM4vANS0AkAAWMa+Y1TnEQBCBOjQCgABYJka2VYbetiozmsFIHETIAABYLn6vhGd7wpAq1XQCoB4FPKZ2u/7oRGd9wpAK6cVABHJ1k/9xwzofFcAAIhr/s9l6sf/E0ZUAABgNj/8c5k68jtiRAUAAGAWiul/an3uAwQQk3LV1d8CQJIeC3IOIEBM/NRn+hDAmFYAxKPZamZpczqN6PwDwKhWAMSjlWQqAPQa0fkHAABYrga0YP4B4EmtAIhHs1nP0uasN6LzDwDuogQQkUZrIkubs8WICgAAzCYAZGsFoHp4eO9aoyoAAPCMAWAia5u03ajOLwA8rhUAEQWAVuYCwEVGdX4B4GGtAIhtBaCVpU26xKjOLwDcrxUAcZloZOoecC8xovMLAEe0AiC2AJCpe8Cd60TA+QWA+7QCILIA0MzcTWBfZVTnHgAeDFXXDgArAMvYzxnVOQaAXYM3NhLnAQBEFgBGsrZJuw4P7y0Z2bmtAKQOagdAPMbqx7O2SX2hXmlkBQAAZjDeOJFk7FLA1BVGdu4B4A7tAIhHq9VMxuonsrZZbzo8vLfH6AoAAMy0CpC9wwDVULuN7NwCwL2hRrQEIB6j9eEsbtZ/PTy8N2d0ZxkApq4E+JaWAEQUACaeyuJmnR/q543u7FcAUl/XEoCYVgCOJa3snQiYer/RnVsAuF1LAOLRbDWSsYljWdy0Fx0e3uvGQHMIAN9IkmxGQQBObySbhwFS/yOEgLwRnkUA2DV445Ph5U5tAYjHiYkns7ppF4d6mxGe3QpA6m+1BSCiADCeBoDMLv7+3uHhvb1GeXYB4BZtAYhHs1XP8mGA1aE+bpRnFwDSEwGHtQYgHsfHHsvy5v3a4eG9HhX8TAFg1+CN4+HlK1oDEI/h8cezvol/GkLAgJGeeQUg5TAAQETG6sNJvTmW5U1cH+qP3SHwmQPAvlB17QGIx7HRR7K+ia8P9VtGeoYAsGvwxvRgkMMAADEFgLEfx7CZHzk8vPe1RvvMKwCpL2oPQDzSKwHqjbGsb2Y67/1FCAHPEwDObH/iMABAZKsAj8Swmd2hbgkhYIsAcBq7Bm9MTwn9a28HgHgcHX04lk3dEOorIQRsFABO74+8HQDikV4NMJrNhwOdzrZQX401BDxTAPibUA94SwDE48nRH8a0uWkIOBBCwLkCwCl2Dd7YCC+f9nYAiEd6OWD6mOCIbA31jRACXiIA/LTPhGp6SwDEIZ38I7gnwNOtTE6eEzAUywbnWq1WksvNfGOkW47sSS8JfKO3BUAcKsWuZGv/C2Pd/E+Ges+22tBEVjcwnfvzs/xaT1ICiMhY/XhyPPvPBziT/5KcPCRwfvQrAFOrAOlTAl/qbQEQh85yX7Kp96KYW3Ai1DXpisC22lCmDoXPZQUgdZ23A0BEs9/4E5OXBcacgUJdH+rrh4f3Xpy1jZtLALg51F3eEgDxeOzE/ZqQJC8K9U8hBHwq1OqsbNSsDwGkbjmy51fCyxf8WwCIRS7Z2v+CyZMCmXQ81B+Gum5bbejR5boRk3P/HANA+oX/FOpi/wYA4lCrrEw29FyoEf82CHw21CdCEDiS+QAwFQJ+MTn5oCAAInFyFaCmEaeZS0N9OTl507ybl8ulg/MNAOkX/32o5xt3gFhWAQaSDT07NWJmT0ztIO8LdWsIAyOZCgBTIeCy8HLAWAPEI70kML00kFkZDXXbVH0t3XFup0Aw7wAwGQIOv+0vWknyJmMMEIf0RMBzBtK7A+Y0Y+7S+wh8L9TBqdf7QqWXWDw2VenqQXo4YTQEhdG2DgD7Dw29eGJ07BvpnwcgDpvXXJSs7jtHI86u9ElM6Q0YHgp1T3LyEvz0ZnwHQjg4uuQBIHXTwSu/MjE2frmxAohDsVBOdg6+OikUSpqxNKsI6SGFz4XaF8LAsSULAH9515t7xkdGH2k2m2XjAhCHlb1bkq1rL9GIpZWuBNyQzPN+BM86AKT237n7N8dHx/6XsQCIx/mbL0tWdK7UiKWXHir4cKjr53IJ4oIEgNS+b19xV31i4gLjABCHjnIt2XHO5WH+yGtGezgU6ooQAg7ONgAsyMgVioXX5PL5pv4DxGF0fDh58NG7NaJ97Aj1d4eH975ttn9gQVYAUvvv3P3+8dGx/24MAOKQzh0XbP53SVfVvQHazLWhrtlWG2rNtAKwYAEgte+OK+6oj0+4VRRAJCqlrmTHOa9I8vmiZrSX9ATBd54pBCzYIYBphULhFflCfkzfAeIwNnE8uf/hOzSi/VwV6iMzfcGCBoBf3LH3sWK5PJTk3CUKIBaPHr0/eeLYgxrRft430zkBC3oIYNpNB6/8/MTY+BV6DxCH9MZAz9368slDArSV9LbClz796oAFPwfgVPu+/Sv31ifq2/QeIA7VSneyfcvPJvl8QTPaS3qJ4CWn3idgwc8B+Kk0WCq+MF8ojOg7QBxGxp5K7vvRP2tE+0kvEXz30z951lYAUvsPDb1sYnTstvB3OCkAIBKb1uxM1vRZAG4zx0Ntnb5t8FldAUi9fsfeA6VK+Tf0HSAeDzx8Z3L0+MMa0V7SkzPeu2grANNuOnjl/54YG79K/wHiUMgXk/O3vCzprPRoRvtIHyC0KX2K4FlfAZj2hp2ff0exXLpV7wHi0GjWk3t/8I1kvD6qGe0jTWO/NP2LRXuKQ7XW9coQAtw4GiAS6eR/7wPfmAwDtI03T3+wKIcApu0/NFRu1OtHGhP1DcYAIA61an9y3uaXJvmcywPbQPrgvv7Brt1HF/U5jq/fsXe8UCxeEOoRYwAQh+GRx5Pv/eCbSavlobFtIJ33Xzb9waIKIWC4VCmFEFB4wjgAxOHYiR8nhx/8OyGgPVy2JAEg9brt/+eJQql0nhAAEI8nh38kBLSH7UsWAKZWAh4tVSqDDgcAxBUC7n3gW0mz1dCMpXPekgaAkysBn3uyUCpuC+UxUgCRSG8SlJ4T4OqAJbNuyQPA1ErAcKFYHCyWS981JgBxSM8JuOcHX0vqjXHNWHy1tggAUyFgvFrr2h5CwFeNC0Acjo88kdz9/f+XjI4Pa8bimrwec1HvAzAbNx288oaJsfH/bHwA4lAslJNzN74oqVUHNGNxNAa7dhfz7fZdvWHn568qd1R+I4SSljECyL70MMA99389efypBzRjcUwuueTb8Tt7/YV/9geljsrP5guFEeMEkH3pVQFHfvgPyQOP3Bl+Zf/vLHuobQPAZAjYsfdAsVzaVCgVjxgrgDj86PF7k+/en54cOKYZZ889bR0ApkLAY2+86M+3lSrlLyRtdJ4CAGfPsROPJt+576uTJwlyVtzV9gFg2ht2fv7KcqV8RT6fd70IQATGJ0aSu+8/kDz0WLqz6pDAArs9/U/bXQUwk/2HhlY2641b6xMTFxo/gDjUOgeSwXUvSMqlqmY8ez95GuCyCgA/CQJ37v7QxPjE+1vNZt5YAmRfoVBKtqy5KOnv3qgZz86t22pDl0/O/csxAEytBmxp1ht/W5+YOM94AsShp7YmBIGLrQbM31tDAPiTZR0Apt10cPd7GxMTH2k2myXjChDBakC+mGxY9dxkdd+gZszN0VCbQgA4lokAkPrSd361t1Fv7K9PTLw8aTlZBCAGXdX+ZPOanUlXR59mzM7/DJP/+9IPMhMApu2/c/dLGo3Gnzcm6puMM0AcBno2JRtX7UhKxQ7NOLPjobaGAPBoJgPAKUHgHfWJ+seajUaXMQfIvny+mKwbeE6ypv/cJJ8raMi/9Vth8v/Y9C8yGwBStxzZkxs9PvL7jfrEbzYbTbEQIALpKsDaEARW9W4VBP7VoVCXhAAwEUUAmLbvjisKYfs+0ajX3x6CQMW/A4DsKxerybqV5ycrezaHOS7qK8ZHQ10aJv+Dp34yigAw7ea731KoT9R/PwSBdzYbjRXeHgBxBIHV/YOTKwKFfJQXi+0Jk/+nn/7JqALAqfbfuXtPo974YAgD7igBEIH00sGVIQSs6dsW0z0Erg2T/9Wn+41oA8BPgsChoRc3G41rQxC4rNVsOVgEkHHpfNfTtWZyRSC9qVD4TFY39YZQ7wwBoCUAzLwiUAl9uKbZaO4JYWC9twhA9pWLHclA75Y0DDTKxWqWdgKvDXXNmSZ/AeDMqwKDrUbzQ81mY1ej3ujXEYDsS28q1N+9oTXQvXG8WKgs1xPG0xP+3nW6Y/4CwNxXBi4I/fntZqP5qmajsbblLoMAmVerDiR93evrfbV1Y+VS53K5n0x6qd8VTz/bXwBYmDDQHXr1jlBvDIHgwhAI3FsAIOPSEwZ7a2ubfSvWD3dVB8r5XL7dfvand/j7UKjrT73OXwA4u4HgnNC7/xTq1SEQbG81m71WCACyLJdUK7Wku2vVWHfX6uGujv5CsVDuXaJvJn2wT3qi33XTt/edCwFgIQPBoaFy6OirQj9fE+rSVrN1TggFA55SCJBdhUIp6erobXZVe493VfuPd5Z7klKxWgvzau0s/HXNULeF+lyofelT/eb7fyQALIKbDl7ZERp8adJKnh9aviP0ezB8vCq89oQK/0BaHWEISmE0CuHXBgIgC8EgX0wqla5mR3nFWEelNlIpdo6VipV6sVBphsqH3y/lc4WOJMmVklwSfvj/VGBohBoO9VCoe0LdFer2UAfCpH90Ib6/nwQAACAuAgAACAAAgAAAAAgAAIAAAAAIAACAAAAACAAAgAAAAAgAAIAAAAAIAACAAAAACAAAgAAAAAgAAIAAAAAIAAAgAAAAAgAAIAAAAAIAACAAAAACAAAgAAAAAgAAIAAAAAIAACAAAAACAAAgAAAAAgAAIAAAAAIAACAAAIAAAAAIAACAAAAACAAAgAAAAAgAAIAAAAAIAACAAAAACAAAgAAAAAgAAIAAAAAIAACAAAAACAAAgAAAAAIAACAAAAACAAAgAAAAAgAAIAAAAAIAACAAAAACAAAgAAAAAgAAIAAAAAIAACAAAAACAAAgAAAAAgAACAACAAAIAACAAAAACAAAgAAAAAgAAIAAAAAIAACAAAAACAAAgAAAAAgAAIAAAAAIAACAAAAACAAAgAAAAAgAACAAAAACAAAgAAAAAgAAIAAAAAIAACAAAAACAAAgAAAAAgAAIAAAAAIAACAAAAACAAAgAAAAAgAAIAAAgAAAAAgAAIAAAAAIAACAAAAACAAAgAAAAAgAAIAAAAAIAACAAAAACAAAgAAAAAgAAIAAAAAIAACAAAAAAgAAIAAAAAIAACAAAAACAAAgAAAAAgAAIAAAAAIAACAAAAACAAAgAAAAAgAAIAAAAAIAACAAAAACAAAIAACAAAAACAAAgAAAAAgAAIAAAAAIAACAAAAACAAAgAAAAAgAAIAAAAAIAACAAAAACAAAwAz+vwADAJ3WjsZxJ49mAAAAAElFTkSuQmCC;" vertex="1" parent="1">
          <mxGeometry x="710" y="198" width="80" height="80" as="geometry" />
        </mxCell>
        <mxCell id="dtRiRAH2Uqq6aqAW33ka-11" value="" style="outlineConnect=0;dashed=0;verticalLabelPosition=bottom;verticalAlign=top;align=center;html=1;shape=mxgraph.aws3.management_console;fillColor=#D2D3D3;gradientColor=none;" vertex="1" parent="1">
          <mxGeometry x="60" y="30" width="68.47" height="69.5" as="geometry" />
        </mxCell>
        <mxCell id="dtRiRAH2Uqq6aqAW33ka-13" value="" style="endArrow=classic;html=1;rounded=0;exitX=0.5;exitY=1;exitDx=0;exitDy=0;exitPerimeter=0;fillColor=#ffe6cc;strokeColor=#d79b00;" edge="1" parent="1">
          <mxGeometry width="50" height="50" relative="1" as="geometry">
            <mxPoint x="90.23500000000001" y="90.00000000000006" as="sourcePoint" />
            <mxPoint x="90" y="428.5" as="targetPoint" />
          </mxGeometry>
        </mxCell>
        <mxCell id="dtRiRAH2Uqq6aqAW33ka-14" value="" style="endArrow=classic;html=1;rounded=0;fillColor=#e1d5e7;strokeColor=#000000;" edge="1" parent="1">
          <mxGeometry width="50" height="50" relative="1" as="geometry">
            <mxPoint x="90" y="129" as="sourcePoint" />
            <mxPoint x="360" y="129" as="targetPoint" />
          </mxGeometry>
        </mxCell>
        <mxCell id="dtRiRAH2Uqq6aqAW33ka-15" value="&lt;b&gt;&lt;font style=&quot;color: rgb(0, 0, 0);&quot; face=&quot;Consolas&quot;&gt;1. Request Web Page&lt;/font&gt;&lt;/b&gt;" style="edgeLabel;html=1;align=center;verticalAlign=middle;resizable=0;points=[];" vertex="1" connectable="0" parent="dtRiRAH2Uqq6aqAW33ka-14">
          <mxGeometry x="-0.3703" y="1" relative="1" as="geometry">
            <mxPoint x="42" y="-9" as="offset" />
          </mxGeometry>
        </mxCell>
        <mxCell id="dtRiRAH2Uqq6aqAW33ka-16" value="" style="endArrow=classic;html=1;rounded=0;fillColor=#dae8fc;strokeColor=#6c8ebf;" edge="1" parent="1">
          <mxGeometry width="50" height="50" relative="1" as="geometry">
            <mxPoint x="358" y="155" as="sourcePoint" />
            <mxPoint x="90" y="155" as="targetPoint" />
          </mxGeometry>
        </mxCell>
        <mxCell id="dtRiRAH2Uqq6aqAW33ka-19" value="&lt;b&gt;&lt;font style=&quot;color: rgb(59, 59, 255);&quot; face=&quot;Consolas&quot;&gt;2. Web Page Served&lt;/font&gt;&lt;/b&gt;" style="edgeLabel;html=1;align=center;verticalAlign=middle;resizable=0;points=[];" vertex="1" connectable="0" parent="dtRiRAH2Uqq6aqAW33ka-16">
          <mxGeometry x="0.0961" relative="1" as="geometry">
            <mxPoint x="7" y="-8" as="offset" />
          </mxGeometry>
        </mxCell>
        <mxCell id="dtRiRAH2Uqq6aqAW33ka-20" value="" style="endArrow=classic;html=1;rounded=0;entryX=0.094;entryY=-0.029;entryDx=0;entryDy=0;entryPerimeter=0;fillColor=#e1d5e7;strokeColor=#000000;" edge="1" parent="1" target="dtRiRAH2Uqq6aqAW33ka-6">
          <mxGeometry width="50" height="50" relative="1" as="geometry">
            <mxPoint x="90" y="218" as="sourcePoint" />
            <mxPoint x="280" y="219" as="targetPoint" />
            <Array as="points">
              <mxPoint x="307" y="218" />
            </Array>
          </mxGeometry>
        </mxCell>
        <mxCell id="dtRiRAH2Uqq6aqAW33ka-21" value="&lt;b&gt;&lt;font style=&quot;color: rgb(0, 0, 0);&quot; face=&quot;Consolas&quot;&gt;3. Download Request (Youtube Video ID)&lt;/font&gt;&lt;/b&gt;" style="edgeLabel;html=1;align=center;verticalAlign=middle;resizable=0;points=[];" vertex="1" connectable="0" parent="dtRiRAH2Uqq6aqAW33ka-20">
          <mxGeometry x="-0.3703" y="1" relative="1" as="geometry">
            <mxPoint x="42" y="-9" as="offset" />
          </mxGeometry>
        </mxCell>
        <mxCell id="dtRiRAH2Uqq6aqAW33ka-26" value="" style="endArrow=classic;html=1;rounded=0;fillColor=#dae8fc;strokeColor=#6c8ebf;exitX=0.021;exitY=0.006;exitDx=0;exitDy=0;exitPerimeter=0;" edge="1" parent="1" source="dtRiRAH2Uqq6aqAW33ka-6">
          <mxGeometry width="50" height="50" relative="1" as="geometry">
            <mxPoint x="290" y="261" as="sourcePoint" />
            <mxPoint x="90" y="238" as="targetPoint" />
            <Array as="points">
              <mxPoint x="291" y="238" />
            </Array>
          </mxGeometry>
        </mxCell>
        <mxCell id="dtRiRAH2Uqq6aqAW33ka-31" value="&lt;font style=&quot;color: rgb(59, 59, 255);&quot; face=&quot;Consolas&quot;&gt;&lt;b&gt;5. Task_ ID&lt;/b&gt;&lt;/font&gt;" style="edgeLabel;html=1;align=center;verticalAlign=middle;resizable=0;points=[];" vertex="1" connectable="0" parent="dtRiRAH2Uqq6aqAW33ka-26">
          <mxGeometry x="0.1856" y="1" relative="1" as="geometry">
            <mxPoint x="17" y="-9" as="offset" />
          </mxGeometry>
        </mxCell>
        <mxCell id="dtRiRAH2Uqq6aqAW33ka-27" value="" style="endArrow=classic;html=1;rounded=0;exitX=0.75;exitY=0;exitDx=0;exitDy=0;entryX=-0.014;entryY=0.149;entryDx=0;entryDy=0;entryPerimeter=0;fillColor=#e1d5e7;strokeColor=#000000;" edge="1" parent="1" source="dtRiRAH2Uqq6aqAW33ka-6" target="dtRiRAH2Uqq6aqAW33ka-8">
          <mxGeometry width="50" height="50" relative="1" as="geometry">
            <mxPoint x="653" y="208" as="sourcePoint" />
            <mxPoint x="449" y="148" as="targetPoint" />
            <Array as="points">
              <mxPoint x="450" y="148" />
            </Array>
          </mxGeometry>
        </mxCell>
        <mxCell id="dtRiRAH2Uqq6aqAW33ka-28" value="&lt;b&gt;&lt;font style=&quot;color: rgb(0, 0, 0);&quot; face=&quot;Consolas&quot;&gt;4. Schedule &quot;Download Video Metadata&quot; Task&lt;/font&gt;&lt;/b&gt;" style="edgeLabel;html=1;align=center;verticalAlign=middle;resizable=0;points=[];" vertex="1" connectable="0" parent="dtRiRAH2Uqq6aqAW33ka-27">
          <mxGeometry x="0.1046" y="-2" relative="1" as="geometry">
            <mxPoint x="98" y="-24" as="offset" />
          </mxGeometry>
        </mxCell>
        <mxCell id="dtRiRAH2Uqq6aqAW33ka-32" value="" style="endArrow=classic;html=1;rounded=0;entryX=1.018;entryY=0.569;entryDx=0;entryDy=0;entryPerimeter=0;fillColor=#d5e8d4;strokeColor=#82b366;strokeWidth=1;exitX=0.125;exitY=0.25;exitDx=0;exitDy=0;exitPerimeter=0;" edge="1" parent="1" source="dtRiRAH2Uqq6aqAW33ka-10" target="dtRiRAH2Uqq6aqAW33ka-8">
          <mxGeometry width="50" height="50" relative="1" as="geometry">
            <mxPoint x="627" y="268" as="sourcePoint" />
            <mxPoint x="600" y="248" as="targetPoint" />
          </mxGeometry>
        </mxCell>
        <mxCell id="dtRiRAH2Uqq6aqAW33ka-33" value="&lt;b&gt;&lt;font style=&quot;color: rgb(0, 153, 0);&quot; face=&quot;Consolas&quot;&gt;Wait for Any&amp;nbsp;&lt;/font&gt;&lt;/b&gt;&lt;div&gt;&lt;b&gt;&lt;font style=&quot;color: rgb(0, 153, 0);&quot; face=&quot;Consolas&quot;&gt;Task for Execution&lt;/font&gt;&lt;/b&gt;&lt;/div&gt;" style="edgeLabel;html=1;align=center;verticalAlign=middle;resizable=0;points=[];" vertex="1" connectable="0" parent="dtRiRAH2Uqq6aqAW33ka-32">
          <mxGeometry x="-0.1155" y="2" relative="1" as="geometry">
            <mxPoint x="57" y="-7" as="offset" />
          </mxGeometry>
        </mxCell>
        <mxCell id="dtRiRAH2Uqq6aqAW33ka-36" value="" style="endArrow=classic;html=1;rounded=0;entryX=-0.012;entryY=0.269;entryDx=0;entryDy=0;entryPerimeter=0;fillColor=#e1d5e7;strokeColor=#000000;" edge="1" parent="1" target="dtRiRAH2Uqq6aqAW33ka-6">
          <mxGeometry width="50" height="50" relative="1" as="geometry">
            <mxPoint x="90" y="268" as="sourcePoint" />
            <mxPoint x="190" y="253" as="targetPoint" />
          </mxGeometry>
        </mxCell>
        <mxCell id="dtRiRAH2Uqq6aqAW33ka-37" value="&lt;b&gt;&lt;font style=&quot;color: rgb(0, 0, 0);&quot; face=&quot;Consolas&quot;&gt;6. Keep Checking For&amp;nbsp;&lt;/font&gt;&lt;/b&gt;&lt;div&gt;&lt;b&gt;&lt;font face=&quot;Consolas&quot;&gt;&lt;font style=&quot;&quot;&gt;&lt;font style=&quot;color: rgb(59, 59, 255);&quot;&gt;Task_ID&lt;/font&gt; &lt;/font&gt;&lt;font&gt;Completion&lt;/font&gt;&lt;/font&gt;&lt;/b&gt;&lt;/div&gt;" style="edgeLabel;html=1;align=center;verticalAlign=middle;resizable=0;points=[];" vertex="1" connectable="0" parent="dtRiRAH2Uqq6aqAW33ka-36">
          <mxGeometry x="0.1714" relative="1" as="geometry">
            <mxPoint x="-14" y="-7" as="offset" />
          </mxGeometry>
        </mxCell>
        <mxCell id="dtRiRAH2Uqq6aqAW33ka-38" value="" style="endArrow=classic;html=1;rounded=0;exitX=0.835;exitY=-0.04;exitDx=0;exitDy=0;exitPerimeter=0;entryX=0;entryY=0.571;entryDx=0;entryDy=0;entryPerimeter=0;fillColor=#e1d5e7;strokeColor=#000000;" edge="1" parent="1" source="dtRiRAH2Uqq6aqAW33ka-6" target="dtRiRAH2Uqq6aqAW33ka-8">
          <mxGeometry width="50" height="50" relative="1" as="geometry">
            <mxPoint x="480" y="248" as="sourcePoint" />
            <mxPoint x="530" y="198" as="targetPoint" />
            <Array as="points">
              <mxPoint x="468" y="178" />
            </Array>
          </mxGeometry>
        </mxCell>
        <mxCell id="dtRiRAH2Uqq6aqAW33ka-39" value="&lt;b&gt;&lt;font style=&quot;color: rgb(0, 0, 0);&quot; face=&quot;Consolas&quot;&gt;7. Metadata&amp;nbsp;&lt;/font&gt;&lt;/b&gt;&lt;div&gt;&lt;b&gt;&lt;font style=&quot;color: rgb(0, 0, 0);&quot; face=&quot;Consolas&quot;&gt;Downloaded&lt;/font&gt;&lt;/b&gt;&lt;/div&gt;" style="edgeLabel;html=1;align=center;verticalAlign=middle;resizable=0;points=[];" vertex="1" connectable="0" parent="dtRiRAH2Uqq6aqAW33ka-38">
          <mxGeometry x="-0.0165" y="-2" relative="1" as="geometry">
            <mxPoint x="33" y="-4" as="offset" />
          </mxGeometry>
        </mxCell>
        <mxCell id="dtRiRAH2Uqq6aqAW33ka-40" value="" style="endArrow=classic;html=1;rounded=0;exitX=0;exitY=0.75;exitDx=0;exitDy=0;fillColor=#e1d5e7;strokeColor=#000000;" edge="1" parent="1" source="dtRiRAH2Uqq6aqAW33ka-6">
          <mxGeometry width="50" height="50" relative="1" as="geometry">
            <mxPoint x="230" y="317" as="sourcePoint" />
            <mxPoint x="90" y="288" as="targetPoint" />
          </mxGeometry>
        </mxCell>
        <mxCell id="dtRiRAH2Uqq6aqAW33ka-41" value="&lt;font style=&quot;color: rgb(0, 0, 0);&quot; face=&quot;Consolas&quot;&gt;&lt;b style=&quot;&quot;&gt;8. Display Video Metadata&lt;/b&gt;&lt;/font&gt;" style="edgeLabel;html=1;align=center;verticalAlign=middle;resizable=0;points=[];" vertex="1" connectable="0" parent="dtRiRAH2Uqq6aqAW33ka-40">
          <mxGeometry x="0.1714" relative="1" as="geometry">
            <mxPoint x="23" y="8" as="offset" />
          </mxGeometry>
        </mxCell>
        <mxCell id="dtRiRAH2Uqq6aqAW33ka-42" value="" style="endArrow=classic;html=1;rounded=0;entryX=0.08;entryY=1.055;entryDx=0;entryDy=0;entryPerimeter=0;fillColor=#e1d5e7;strokeColor=#000000;" edge="1" parent="1" target="dtRiRAH2Uqq6aqAW33ka-6">
          <mxGeometry width="50" height="50" relative="1" as="geometry">
            <mxPoint x="90" y="328" as="sourcePoint" />
            <mxPoint x="150" y="348" as="targetPoint" />
            <Array as="points">
              <mxPoint x="304" y="328" />
            </Array>
          </mxGeometry>
        </mxCell>
        <mxCell id="dtRiRAH2Uqq6aqAW33ka-43" value="&lt;font style=&quot;color: rgb(0, 0, 0);&quot; face=&quot;Consolas&quot;&gt;&lt;b style=&quot;&quot;&gt;9. User Choose Video Format Y&lt;/b&gt;&lt;/font&gt;" style="edgeLabel;html=1;align=center;verticalAlign=middle;resizable=0;points=[];" vertex="1" connectable="0" parent="dtRiRAH2Uqq6aqAW33ka-42">
          <mxGeometry x="0.1714" relative="1" as="geometry">
            <mxPoint x="-38" as="offset" />
          </mxGeometry>
        </mxCell>
        <mxCell id="dtRiRAH2Uqq6aqAW33ka-44" value="" style="endArrow=classic;html=1;rounded=0;exitX=0.903;exitY=0.079;exitDx=0;exitDy=0;exitPerimeter=0;fillColor=#e1d5e7;strokeColor=#000000;" edge="1" parent="1" source="dtRiRAH2Uqq6aqAW33ka-6">
          <mxGeometry width="50" height="50" relative="1" as="geometry">
            <mxPoint x="480" y="286" as="sourcePoint" />
            <mxPoint x="600" y="199" as="targetPoint" />
            <Array as="points">
              <mxPoint x="600" y="261" />
            </Array>
          </mxGeometry>
        </mxCell>
        <mxCell id="dtRiRAH2Uqq6aqAW33ka-45" value="&lt;font style=&quot;color: rgb(0, 0, 0);&quot;&gt;&lt;font style=&quot;&quot; face=&quot;Consolas&quot;&gt;&lt;b style=&quot;&quot;&gt;10. Schedule&amp;nbsp;&lt;/b&gt;&lt;/font&gt;&lt;b style=&quot;font-family: Consolas;&quot;&gt;Task&lt;/b&gt;&lt;/font&gt;&lt;div&gt;&lt;font style=&quot;color: rgb(0, 0, 0);&quot; face=&quot;Consolas&quot;&gt;&lt;b style=&quot;&quot;&gt;&amp;nbsp;&quot;Download Video Format Y&quot;&amp;nbsp;&lt;/b&gt;&lt;/font&gt;&lt;/div&gt;" style="edgeLabel;html=1;align=center;verticalAlign=middle;resizable=0;points=[];" vertex="1" connectable="0" parent="dtRiRAH2Uqq6aqAW33ka-44">
          <mxGeometry x="-0.0165" y="-2" relative="1" as="geometry">
            <mxPoint x="-11" y="-35" as="offset" />
          </mxGeometry>
        </mxCell>
        <mxCell id="dtRiRAH2Uqq6aqAW33ka-47" value="" style="endArrow=classic;html=1;rounded=0;startArrow=block;startFill=1;dashed=1;fillColor=#e1d5e7;strokeColor=#000000;" edge="1" parent="1">
          <mxGeometry width="50" height="50" relative="1" as="geometry">
            <mxPoint x="90" y="356" as="sourcePoint" />
            <mxPoint x="330" y="298" as="targetPoint" />
            <Array as="points">
              <mxPoint x="330" y="356" />
            </Array>
          </mxGeometry>
        </mxCell>
        <mxCell id="dtRiRAH2Uqq6aqAW33ka-48" value="&lt;font style=&quot;color: rgb(0, 0, 0);&quot; face=&quot;Consolas&quot;&gt;&lt;b style=&quot;&quot;&gt;11. Open Websocket&amp;nbsp;&lt;/b&gt;&lt;/font&gt;&lt;div&gt;&lt;font style=&quot;color: rgb(0, 0, 0);&quot; face=&quot;Consolas&quot;&gt;&lt;b style=&quot;&quot;&gt;to Check Progress&lt;/b&gt;&lt;/font&gt;&lt;/div&gt;" style="edgeLabel;html=1;align=center;verticalAlign=middle;resizable=0;points=[];" vertex="1" connectable="0" parent="dtRiRAH2Uqq6aqAW33ka-47">
          <mxGeometry x="0.1714" relative="1" as="geometry">
            <mxPoint x="-47" y="1" as="offset" />
          </mxGeometry>
        </mxCell>
        <mxCell id="dtRiRAH2Uqq6aqAW33ka-59" value="" style="endArrow=classic;html=1;rounded=0;exitX=0.25;exitY=0.75;exitDx=0;exitDy=0;exitPerimeter=0;entryX=1.007;entryY=0.43;entryDx=0;entryDy=0;entryPerimeter=0;fillColor=#e1d5e7;strokeColor=#000000;" edge="1" parent="1" source="dtRiRAH2Uqq6aqAW33ka-10" target="dtRiRAH2Uqq6aqAW33ka-9">
          <mxGeometry width="50" height="50" relative="1" as="geometry">
            <mxPoint x="730" y="258" as="sourcePoint" />
            <mxPoint x="456" y="381" as="targetPoint" />
            <Array as="points">
              <mxPoint x="730" y="388" />
            </Array>
          </mxGeometry>
        </mxCell>
        <mxCell id="dtRiRAH2Uqq6aqAW33ka-60" value="&lt;font style=&quot;color: rgb(0, 0, 0);&quot; face=&quot;Consolas&quot;&gt;&lt;b style=&quot;&quot;&gt;12. Video Download Complete&lt;/b&gt;&lt;/font&gt;&lt;div&gt;&lt;font style=&quot;color: rgb(0, 0, 0);&quot; face=&quot;Consolas&quot;&gt;&lt;b style=&quot;&quot;&gt;Store in Videos Directory&lt;/b&gt;&lt;/font&gt;&lt;/div&gt;" style="edgeLabel;html=1;align=center;verticalAlign=middle;resizable=0;points=[];" vertex="1" connectable="0" parent="dtRiRAH2Uqq6aqAW33ka-59">
          <mxGeometry x="-0.0165" y="-2" relative="1" as="geometry">
            <mxPoint x="-40" y="-1" as="offset" />
          </mxGeometry>
        </mxCell>
        <mxCell id="dtRiRAH2Uqq6aqAW33ka-62" value="" style="endArrow=classic;html=1;rounded=0;exitX=0.645;exitY=1.036;exitDx=0;exitDy=0;exitPerimeter=0;entryX=0.5;entryY=0;entryDx=0;entryDy=0;fillColor=#e1d5e7;strokeColor=#000000;" edge="1" parent="1" source="dtRiRAH2Uqq6aqAW33ka-6" target="dtRiRAH2Uqq6aqAW33ka-9">
          <mxGeometry width="50" height="50" relative="1" as="geometry">
            <mxPoint x="390" y="368" as="sourcePoint" />
            <mxPoint x="440" y="318" as="targetPoint" />
          </mxGeometry>
        </mxCell>
        <mxCell id="dtRiRAH2Uqq6aqAW33ka-63" value="&lt;b&gt;&lt;font face=&quot;Consolas&quot;&gt;14. Retrieve Video&amp;nbsp;&lt;/font&gt;&lt;/b&gt;&lt;div&gt;&lt;b&gt;&lt;font face=&quot;Consolas&quot;&gt;Using &lt;font style=&quot;color: rgb(59, 59, 255);&quot;&gt;Task_ID&lt;/font&gt;&lt;/font&gt;&lt;/b&gt;&lt;/div&gt;" style="edgeLabel;html=1;align=center;verticalAlign=middle;resizable=0;points=[];" vertex="1" connectable="0" parent="dtRiRAH2Uqq6aqAW33ka-62">
          <mxGeometry x="-0.4663" relative="1" as="geometry">
            <mxPoint y="11" as="offset" />
          </mxGeometry>
        </mxCell>
        <mxCell id="dtRiRAH2Uqq6aqAW33ka-64" value="" style="endArrow=classic;html=1;rounded=0;entryX=0.318;entryY=1.031;entryDx=0;entryDy=0;entryPerimeter=0;fillColor=#e1d5e7;strokeColor=#000000;" edge="1" parent="1" target="dtRiRAH2Uqq6aqAW33ka-6">
          <mxGeometry width="50" height="50" relative="1" as="geometry">
            <mxPoint x="90" y="398" as="sourcePoint" />
            <mxPoint x="340" y="408" as="targetPoint" />
            <Array as="points">
              <mxPoint x="357" y="398" />
            </Array>
          </mxGeometry>
        </mxCell>
        <mxCell id="dtRiRAH2Uqq6aqAW33ka-65" value="&lt;font style=&quot;color: rgb(0, 0, 0);&quot; face=&quot;Consolas&quot;&gt;&lt;b style=&quot;&quot;&gt;13. Download Retrieved Video&lt;/b&gt;&lt;/font&gt;" style="edgeLabel;html=1;align=center;verticalAlign=middle;resizable=0;points=[];" vertex="1" connectable="0" parent="dtRiRAH2Uqq6aqAW33ka-64">
          <mxGeometry x="0.1714" relative="1" as="geometry">
            <mxPoint x="-74" y="-7" as="offset" />
          </mxGeometry>
        </mxCell>
        <mxCell id="dtRiRAH2Uqq6aqAW33ka-67" value="&lt;font style=&quot;color: rgb(204, 0, 0);&quot; face=&quot;Consolas&quot;&gt;&lt;b style=&quot;&quot;&gt;Redis&lt;/b&gt;&lt;/font&gt;" style="edgeLabel;html=1;align=center;verticalAlign=middle;resizable=0;points=[];" vertex="1" connectable="0" parent="1">
          <mxGeometry x="626" y="206" as="geometry">
            <mxPoint x="8" y="8" as="offset" />
          </mxGeometry>
        </mxCell>
        <mxCell id="dtRiRAH2Uqq6aqAW33ka-68" value="&lt;font face=&quot;Consolas&quot; color=&quot;#009900&quot;&gt;&lt;b&gt;Celery Worker&lt;/b&gt;&lt;/font&gt;" style="edgeLabel;html=1;align=center;verticalAlign=middle;resizable=0;points=[];" vertex="1" connectable="0" parent="1">
          <mxGeometry x="772" y="252" as="geometry">
            <mxPoint x="8" y="8" as="offset" />
          </mxGeometry>
        </mxCell>
        <mxCell id="dtRiRAH2Uqq6aqAW33ka-70" value="&lt;font style=&quot;color: rgb(51, 0, 0);&quot; face=&quot;Consolas&quot;&gt;&lt;b style=&quot;&quot;&gt;Next.js&lt;/b&gt;&lt;/font&gt;" style="edgeLabel;html=1;align=center;verticalAlign=middle;resizable=0;points=[];" vertex="1" connectable="0" parent="1">
          <mxGeometry x="386" y="112" as="geometry">
            <mxPoint x="8" y="8" as="offset" />
          </mxGeometry>
        </mxCell>
        <mxCell id="dtRiRAH2Uqq6aqAW33ka-71" value="&lt;font style=&quot;color: rgb(51, 0, 0);&quot; face=&quot;Consolas&quot;&gt;&lt;b style=&quot;&quot;&gt;Filesystem&lt;/b&gt;&lt;/font&gt;" style="edgeLabel;html=1;align=center;verticalAlign=middle;resizable=0;points=[];" vertex="1" connectable="0" parent="1">
          <mxGeometry x="420" y="410" as="geometry">
            <mxPoint x="8" y="8" as="offset" />
          </mxGeometry>
        </mxCell>
        <mxCell id="dtRiRAH2Uqq6aqAW33ka-73" value="&lt;font style=&quot;color: rgb(51, 0, 0);&quot; face=&quot;Consolas&quot;&gt;&lt;b style=&quot;&quot;&gt;User&amp;nbsp;&lt;/b&gt;&lt;/font&gt;&lt;div&gt;&lt;font style=&quot;color: rgb(51, 0, 0);&quot; face=&quot;Consolas&quot;&gt;&lt;b style=&quot;&quot;&gt;Browser&lt;/b&gt;&lt;/font&gt;&lt;/div&gt;" style="edgeLabel;html=1;align=center;verticalAlign=middle;resizable=0;points=[];" vertex="1" connectable="0" parent="1">
          <mxGeometry x="87.00000000000001" y="44" as="geometry">
            <mxPoint x="8" y="8" as="offset" />
          </mxGeometry>
        </mxCell>
      </root>
    </mxGraphModel>
  </diagram>
</mxfile>
